<svg width="131" height="156" viewBox="0 0 131 156" fill="none" xmlns="http://www.w3.org/2000/svg">
<path d="M24.9108 50.9376H22.8755V48.9014C22.8755 48.6411 22.6629 48.4286 22.4024 48.4286C22.1405 48.4286 21.9288 48.6411 21.9288 48.9014V50.9376H19.8928C19.6317 50.9376 19.4198 51.1495 19.4198 51.4112C19.4198 51.6724 19.6317 51.8841 19.8928 51.8841H21.9288V53.9202C21.9288 54.1814 22.1405 54.3934 22.4024 54.3934C22.6629 54.3934 22.8755 54.1814 22.8755 53.9202V51.8841H24.9108C25.172 51.8841 25.3839 51.6724 25.3839 51.4112C25.3837 51.1495 25.1719 50.9376 24.9108 50.9376Z" fill="#F39200"/>
<path d="M0.473427 44.2041H2.50916V46.2395C2.50916 46.5006 2.72088 46.7125 2.98259 46.7125C3.24367 46.7125 3.45555 46.5006 3.45555 46.2395V44.2041H5.49159C5.75267 44.2041 5.96455 43.9916 5.96455 43.7305C5.96455 43.469 5.75267 43.2569 5.49159 43.2569H3.45555V41.2215C3.45555 40.9601 3.24367 40.7479 2.98259 40.7479C2.72088 40.7479 2.50916 40.9601 2.50916 41.2215V43.2569H0.473427C0.211878 43.2569 0 43.469 0 43.7305C0.000155222 43.9916 0.212033 44.2041 0.473427 44.2041Z" fill="#F39200"/>
<path d="M31.0272 29.5146H33.0624V31.5508C33.0624 31.8111 33.2751 32.0236 33.5356 32.0236C33.7974 32.0236 34.0091 31.8111 34.0091 31.5508V29.5146H36.0452C36.3063 29.5146 36.5181 29.3027 36.5181 29.041C36.5181 28.7798 36.3063 28.568 36.0452 28.568H34.0091V26.532C34.0091 26.2708 33.7974 26.0587 33.5356 26.0587C33.2751 26.0587 33.0624 26.2708 33.0624 26.532V28.568H31.0272C30.7659 28.568 30.554 28.7798 30.554 29.041C30.554 29.3027 30.7661 29.5146 31.0272 29.5146Z" fill="#F39200"/>
<path d="M125.107 32.3645H127.142V34.4007C127.142 34.661 127.355 34.8735 127.615 34.8735C127.877 34.8735 128.089 34.661 128.089 34.4007V32.3645H130.125C130.386 32.3645 130.598 32.1526 130.598 31.8909C130.598 31.6297 130.386 31.418 130.125 31.418H128.089V29.3819C128.089 29.1207 127.877 28.9086 127.615 28.9086C127.355 28.9086 127.142 29.1207 127.142 29.3819V31.418H125.107C124.846 31.418 124.634 31.6297 124.634 31.8909C124.634 32.1525 124.846 32.3645 125.107 32.3645Z" fill="#F39200"/>
<path d="M8.49731 29.3822H10.5331V31.4176C10.5331 31.6787 10.7452 31.8912 11.0063 31.8912C11.2677 31.8912 11.4796 31.6787 11.4796 31.4176V29.3822H13.5153C13.7764 29.3822 13.9888 29.1699 13.9888 28.9083C13.9888 28.6472 13.7764 28.4355 13.5153 28.4355H11.4796V26.3993C11.4796 26.1382 11.2677 25.9263 11.0063 25.9263C10.7452 25.9263 10.5331 26.1382 10.5331 26.3993V28.4355H8.49731C8.23623 28.4355 8.02435 28.6472 8.02435 28.9083C8.02435 29.1699 8.23623 29.3822 8.49731 29.3822Z" fill="#F39200"/>
<path d="M58.4419 15.5235H56.4066V13.4874C56.4066 13.227 56.194 13.0145 55.9335 13.0145C55.6716 13.0145 55.4599 13.227 55.4599 13.4874V15.5235H53.4239C53.1628 15.5235 52.9509 15.7354 52.9509 15.9972C52.9509 16.2585 53.1628 16.4702 53.4239 16.4702H55.4599V18.5062C55.4599 18.7675 55.6716 18.9793 55.9335 18.9793C56.194 18.9793 56.4066 18.7675 56.4066 18.5062V16.4702H58.4419C58.7031 16.4702 58.915 16.2585 58.915 15.9972C58.9148 15.7354 58.703 15.5235 58.4419 15.5235Z" fill="#F39200"/>
<path d="M78.9014 20.233H76.8661V18.1969C76.8661 17.9364 76.6535 17.7239 76.393 17.7239C76.1311 17.7239 75.9194 17.9364 75.9194 18.1969V20.233H73.8834C73.6223 20.233 73.4104 20.4448 73.4104 20.7067C73.4104 20.9679 73.6223 21.1797 73.8834 21.1797H75.9194V23.2157C75.9194 23.4769 76.1311 23.6888 76.393 23.6888C76.6535 23.6888 76.8661 23.4769 76.8661 23.2157V21.1797H78.9014C79.1626 21.1797 79.3745 20.9679 79.3745 20.7067C79.3745 20.445 79.1625 20.233 78.9014 20.233Z" fill="#F39200"/>
<path d="M18.8064 18.2779H20.8421V20.3132C20.8421 20.5744 21.0538 20.7861 21.3155 20.7861C21.5766 20.7861 21.7885 20.5744 21.7885 20.3132V18.2779H23.8246C24.0856 18.2779 24.2975 18.0652 24.2975 17.8042C24.2975 17.5428 24.0856 17.3307 23.8246 17.3307H21.7885V15.2951C21.7885 15.0339 21.5766 14.8217 21.3155 14.8217C21.0538 14.8217 20.8421 15.0339 20.8421 15.2951V17.3307H18.8064C18.5448 17.3307 18.3329 17.5428 18.3329 17.8042C18.3329 18.0652 18.5448 18.2779 18.8064 18.2779Z" fill="#F39200"/>
<path d="M124.01 56.439H126.046V58.4743C126.046 58.7355 126.258 58.9473 126.52 58.9473C126.781 58.9473 126.993 58.7355 126.993 58.4743V56.439H129.029C129.29 56.439 129.502 56.2264 129.502 55.9653C129.502 55.7039 129.29 55.4919 129.029 55.4919H126.993V53.4563C126.993 53.195 126.781 52.9828 126.52 52.9828C126.258 52.9828 126.046 53.195 126.046 53.4563V55.4919H124.01C123.749 55.4919 123.537 55.7039 123.537 55.9653C123.537 56.2264 123.749 56.439 124.01 56.439Z" fill="#F39200"/>
<path d="M49.3601 3.58844H51.3954V5.62464C51.3954 5.88495 51.6081 6.09745 51.8685 6.09745C52.1304 6.09745 52.3421 5.88495 52.3421 5.62464V3.58844H54.3782C54.6392 3.58844 54.8511 3.3764 54.8511 3.1147C54.8511 2.85361 54.6392 2.64174 54.3782 2.64174H52.3421V0.605687C52.3421 0.344603 52.1304 0.132568 51.8685 0.132568C51.6081 0.132568 51.3954 0.344603 51.3954 0.605687V2.64174H49.3601C49.0989 2.64174 48.887 2.85361 48.887 3.1147C48.887 3.3764 49.0989 3.58844 49.3601 3.58844Z" fill="#F39200"/>
<path d="M26.8301 3.45571H28.8658V5.49114C28.8658 5.75223 29.078 5.96473 29.3391 5.96473C29.6005 5.96473 29.8124 5.75223 29.8124 5.49114V3.45571H31.8481C32.1092 3.45571 32.3216 3.24352 32.3216 2.98198C32.3216 2.72089 32.1092 2.50917 31.8481 2.50917H29.8124V0.473117C29.8124 0.212033 29.6005 0 29.3391 0C29.078 0 28.8658 0.212033 28.8658 0.473117V2.50932H26.8301C26.569 2.50932 26.3571 2.72105 26.3571 2.98213C26.3571 3.24352 26.5692 3.45571 26.8301 3.45571Z" fill="#F39200"/>
<path d="M109.464 6.31182H111.256V7.80397C111.256 7.9952 111.443 8.15105 111.673 8.15105C111.903 8.15105 112.09 7.9952 112.09 7.80397V6.31182H113.882C114.111 6.31182 114.298 6.15613 114.298 5.96459C114.298 5.7732 114.111 5.61798 113.882 5.61798H112.09V4.12536C112.09 3.93413 111.903 3.77875 111.673 3.77875C111.443 3.77875 111.256 3.93413 111.256 4.12536V5.61798H109.464C109.234 5.61798 109.048 5.7732 109.048 5.96459C109.048 6.15613 109.234 6.31182 109.464 6.31182Z" fill="#F39200"/>
<path d="M68.7802 92.2392C68.7483 92.2392 68.7165 92.2294 68.6895 92.21C68.5812 92.1319 57.8008 84.3194 53.7104 77.2262C51.9207 74.1227 51.8543 70.385 53.5373 67.4714C54.8493 65.2004 56.9604 63.8981 59.3299 63.8981C62.5321 63.8981 65.8818 66.3046 68.7795 70.6805C71.8809 65.943 75.6532 63.3374 79.421 63.3374C82.2888 63.3374 84.8056 64.8879 86.1536 67.4851C87.8016 70.6608 87.316 74.6438 84.855 78.1399C80.1455 84.8312 68.9773 92.1411 68.8651 92.2142C68.839 92.2308 68.8095 92.2392 68.7802 92.2392ZM59.3298 64.2084C57.0742 64.2084 55.061 65.4542 53.806 67.6265C52.1782 70.4443 52.2445 74.0633 53.9791 77.0708C57.843 83.7712 67.7541 91.1399 68.7847 91.895C69.8526 91.1886 80.1486 84.2867 84.6007 77.961C86.9939 74.5615 87.4712 70.6987 85.8777 67.6281C84.5843 65.1357 82.1706 63.6477 79.4208 63.6477C75.7097 63.6477 71.9773 66.2761 68.9109 71.0484C68.8823 71.0926 68.8334 71.1195 68.7808 71.1196C68.7806 71.1196 68.7805 71.1196 68.7803 71.1196C68.7278 71.1196 68.6788 71.0931 68.6502 71.049C65.7817 66.6377 62.4718 64.2084 59.3298 64.2084Z" fill="#EBEFF0"/>
<path d="M68.7802 92.2392C68.7483 92.2392 68.7165 92.2294 68.6895 92.21C68.5812 92.1319 57.8008 84.3194 53.7104 77.2262C51.9207 74.1227 51.8543 70.385 53.5373 67.4714C54.8493 65.2004 56.9604 63.8981 59.3299 63.8981C62.5321 63.8981 65.8818 66.3046 68.7795 70.6805C71.8809 65.943 75.6532 63.3374 79.421 63.3374C82.2888 63.3374 84.8056 64.8879 86.1536 67.4851C87.8016 70.6608 87.316 74.6438 84.855 78.1399C80.1455 84.8312 68.9773 92.1411 68.8651 92.2142C68.839 92.2308 68.8095 92.2392 68.7802 92.2392ZM59.3298 64.2084C57.0742 64.2084 55.061 65.4542 53.806 67.6265C52.1782 70.4443 52.2445 74.0633 53.9791 77.0708C57.843 83.7712 67.7541 91.1399 68.7847 91.895C69.8526 91.1886 80.1486 84.2867 84.6007 77.961C86.9939 74.5615 87.4712 70.6987 85.8777 67.6281C84.5843 65.1357 82.1706 63.6477 79.4208 63.6477C75.7097 63.6477 71.9773 66.2761 68.9109 71.0484C68.8823 71.0926 68.8334 71.1195 68.7808 71.1196C68.7806 71.1196 68.7805 71.1196 68.7803 71.1196C68.7278 71.1196 68.6788 71.0931 68.6502 71.049C65.7817 66.6377 62.4718 64.2084 59.3298 64.2084Z" fill="#EBEFF0"/>
<path d="M38.6747 70.9007V87.7068C35.8977 90.8732 31.7424 94.108 27.9504 91.1092C21.5102 86.0162 24.506 74.4848 29.4483 64.4514C30.0847 63.1599 30.8173 62.1836 31.6105 61.4649C31.938 62.092 32.5605 62.7921 33.647 63.5402C31.7549 63.5014 29.664 64.1782 30.1964 65.9494C30.1964 65.9494 30.4386 66.2164 30.8623 66.6247C30.8623 66.6355 30.8639 71.3418 33.4483 71.6414C35.4414 71.8726 36.961 71.7561 38.24 70.8636C38.3861 70.8805 38.5305 70.8931 38.6747 70.9007Z" fill="#F39200"/>
<path d="M118.104 90.6589C116.494 95.7131 114.406 98.7258 112.123 100.308C107.511 103.499 102.097 100.849 98.1947 97.3738C99.733 96.4504 100.764 94.7661 100.764 92.8415V87.3092C103.104 87.9472 105.619 88.4811 106.474 88.1133C108.219 87.3653 107.358 82.558 105.343 82.9476C106.195 82.735 106.851 82.4975 107.171 82.2723C108.669 81.2245 105.718 78.3158 103.665 78.2894C102.875 78.28 102.089 78.2753 101.422 78.2724C102.766 78.2196 103.918 78.0488 104.475 77.7881C106.248 76.9638 104.793 74.2847 104.518 73.8097C105.364 72.3444 106.96 69.3533 106.474 68.4125C105.85 67.2002 101.173 67.5634 100.788 73.7987C100.781 73.7987 100.771 73.7987 100.764 73.8003V62.7345C100.764 62.6413 100.761 62.5467 100.757 62.4551C107.797 65.6418 123.162 74.7766 118.104 90.6589Z" fill="#F39200"/>
<path d="M46.8503 57.4538H43.9555C43.7537 57.4538 43.555 57.4647 43.3594 57.488C44.3156 55.2761 46.4809 52.1485 47.1189 53.1852C47.6621 54.0701 47.2756 55.9778 46.8503 57.4538Z" fill="#EBEFF0"/>
<path d="M43.1732 64.8907C43.1728 64.8907 43.1724 64.8907 43.1721 64.8907C42.3058 64.8845 41.4991 64.786 41.2537 64.6569C41.1778 64.617 41.1487 64.5231 41.1886 64.4472C41.2285 64.3713 41.3224 64.3421 41.3983 64.3822C41.5699 64.4725 42.2975 64.5737 43.1744 64.5801C43.2601 64.5807 43.3292 64.6507 43.3285 64.7364C43.3278 64.8217 43.2584 64.8907 43.1732 64.8907Z" fill="#EBEFF0"/>
<path d="M43.1731 64.7354C43.4898 65.1157 43.8064 65.5209 44.1246 65.9493C44.2069 66.7811 44.1526 68.3457 42.6004 68.408C42.841 68.9761 42.546 69.6001 41.326 70.2924C40.4785 70.7736 39.5797 70.9443 38.6748 70.9009V70.5237C38.5335 70.6479 38.3876 70.7612 38.2402 70.8635C36.9611 71.756 35.4415 71.8724 33.4485 71.6413C30.864 71.3415 30.8625 66.6354 30.8625 66.6245C30.4387 66.2163 30.1966 65.9493 30.1966 65.9493C29.6642 64.1782 31.755 63.5013 33.6472 63.5401C32.5606 62.7919 31.9382 62.0918 31.6106 61.4647C30.6793 59.683 32.1431 58.5016 32.1431 58.5016C32.1431 58.5016 34.2463 58.2765 37.2079 59.7759H37.2095C37.2095 59.7759 37.2111 59.7759 37.2111 59.7775C37.1598 59.5974 35.4384 52.6203 37.9841 53.8947C39.097 54.4504 40.6089 56.057 42.0229 57.8186C42.3225 58.1911 42.6174 58.5716 42.9046 58.9519C44.3559 60.8735 45.5682 62.7593 45.9206 63.4921C46.3955 64.4792 44.6569 64.7493 43.1731 64.7354Z" fill="#EBEFF0"/>
<path d="M38.7523 70.9827L38.6705 70.9784C38.5261 70.9706 38.3782 70.958 38.231 70.9408L38.0272 70.9169L38.1958 70.7999C38.3445 70.6968 38.4884 70.5843 38.6235 70.4655L38.7523 70.3524V70.9827ZM38.4502 70.8072C38.4994 70.8113 38.5485 70.8152 38.5972 70.8183V70.6914C38.5489 70.7308 38.4999 70.7694 38.4502 70.8072Z" fill="#EBEFF0"/>
<path d="M111.011 121.938C109.928 115.28 105.526 97.2699 86.9611 98.1579C74.3866 98.7602 69.9146 104.789 68.7039 110.745C67.6981 115.681 68.9337 120.566 69.6492 122.266C70.0357 123.181 70.8196 124.572 71.7851 126.193C71.4917 126.52 71.1797 126.835 70.8537 127.135C65.1323 132.426 54.9171 133.687 47.7101 133.792H47.7086C42.7648 132.658 36.1864 130.379 29.4483 121.958C16.3366 105.57 39.9739 96.6602 40.2145 96.57C40.216 96.57 40.216 96.57 40.216 96.57C41.1706 97.5293 42.4931 98.1222 43.9553 98.1222H63.1423L67.7384 108.603L73.4165 98.1222H95.4828C96.4747 98.1222 97.4029 97.849 98.1946 97.3741C102.097 100.85 107.511 103.499 112.123 100.308C112.868 102.613 113.434 105.928 113.76 110.728C114.144 116.364 112.228 117.508 111.011 121.938Z" fill="#EBEFF0"/>
<path d="M111.011 121.938V121.94C110.803 122.688 110.619 123.529 110.466 124.504C110.182 126.325 109.375 128.091 108.396 129.739C92.2294 136.669 79.4872 132.009 73.2147 128.555C72.7133 127.734 72.2306 126.939 71.7851 126.192C70.8196 124.572 70.0357 123.181 69.6492 122.265C68.0691 118.517 63.9634 99.2583 86.9611 98.1577C105.526 97.2699 109.928 115.28 111.011 121.938Z" fill="#EBEFF0"/>
<path d="M105.144 153.408C102.668 156.852 78.2689 153.856 77.9693 153.408C77.9227 153.338 77.5843 153.26 77.0349 153.184C76.2525 151.016 77.0706 148.976 77.0706 147.429C77.0706 145.331 79.7652 143.685 79.6162 140.689C79.52 138.763 76.0787 133.244 73.2148 128.555C79.4874 132.009 92.2295 136.669 108.396 129.739C105.749 134.196 101.852 137.8 103.665 139.331C106.147 141.428 107.62 149.963 105.144 153.408Z" fill="#F39200"/>
<path d="M77.0705 147.429C77.0705 148.976 76.2525 151.016 77.0348 153.184C74.0452 152.762 64.808 152.326 62.461 152.957C59.6826 153.707 44.7223 157.751 44.1479 148.017C43.5721 138.283 57.0034 145.172 56.1047 138.283C55.667 134.916 52.4368 134.876 47.7103 133.792C54.9172 133.687 65.1324 132.426 70.8539 127.135C71.1798 126.835 71.4918 126.52 71.7852 126.192C72.2307 126.939 72.7134 127.734 73.2148 128.555C76.0787 133.244 79.5199 138.762 79.6162 140.689C79.7652 143.685 77.0705 145.331 77.0705 147.429Z" fill="#F39200"/>
<path d="M81.1358 57.4538H58.1614C57.9208 55.7557 58.0621 53.9225 58.3554 52.2322C58.6907 52.0737 59.0229 51.8953 59.3519 51.692C64.4432 55.585 67.4126 53.1899 68.9229 49.7455C71.183 53.6385 77.7721 52.1406 78.9704 49.4459C79.27 51.3924 75.5261 52.999 77.7721 55.1364V55.7354C77.9227 54.9856 81.9647 51.5413 82.8634 53.713C83.3151 54.8059 82.3636 56.2974 81.1358 57.4538Z" fill="#EBEFF0"/>
<path d="M98.8249 58.6459C97.9153 57.9009 96.7511 57.4538 95.483 57.4538H81.1358C82.3636 56.2974 83.3151 54.8057 82.8634 53.713C81.9647 51.5414 77.9227 54.9857 77.7721 55.7354V55.1364C75.5261 52.9988 79.27 51.3924 78.9704 49.4459C77.7721 52.1404 71.183 53.6385 68.9229 49.7455C67.4126 53.1899 64.4432 55.585 59.3519 51.692C59.0229 51.8955 58.6907 52.0738 58.3554 52.2322C48.297 56.9432 35.5936 41.4689 46.1736 31.3253C57.1059 20.8416 65.1929 35.8174 65.1929 35.8174C65.1929 35.8174 72.0817 29.5276 74.6273 37.3151C87.1926 28.6059 116.502 39.0912 98.8249 58.6459Z" fill="#090700"/>
<path d="M106.474 88.1133C105.619 88.4812 103.104 87.9474 100.764 87.3092C98.3327 86.6449 96.0898 85.8672 96.0898 85.8672C95.7669 84.5773 97.063 83.9302 98.8031 83.581C97.1065 83.477 95.6582 83.0951 95.0405 82.2723C93.2445 79.8772 99.5838 78.2708 99.5838 78.2708C96.6299 78.1544 93.5783 77.4806 93.8421 75.9829C94.1091 74.471 97.8034 73.9634 100.764 73.8003C100.771 73.7987 100.781 73.7987 100.788 73.7987C101.173 67.5635 105.85 67.2002 106.474 68.4125C106.96 69.3533 105.364 72.3443 104.518 73.8098C104.793 74.2847 106.248 76.9639 104.475 77.7881C103.918 78.0489 102.766 78.2196 101.422 78.2724C102.089 78.2755 102.875 78.2801 103.665 78.2895C105.718 78.3158 108.669 81.2245 107.171 82.2723C106.851 82.4974 106.195 82.7349 105.343 82.9477C107.358 82.5581 108.219 87.3653 106.474 88.1133Z" fill="#EBEFF0"/>
<path d="M93.8423 75.9829C93.5784 77.4807 96.6301 78.1545 99.584 78.2709C99.584 78.2709 93.2447 79.8775 95.0406 82.2724C95.6584 83.0952 97.1066 83.4771 98.8032 83.5811C97.0632 83.9303 95.7671 84.5776 96.0899 85.8673C96.0899 85.8673 98.3329 86.645 100.764 87.3093V92.8416C100.764 94.7662 99.733 96.4505 98.1947 97.374C97.4031 97.8491 96.4749 98.1221 95.483 98.1221H73.4166L67.7386 108.603L63.1425 98.1221H43.9555C42.4933 98.1221 41.1708 97.5292 40.2162 96.5699C40.2162 96.5699 40.2162 96.5699 40.2146 96.5699C39.2631 95.6137 38.6748 94.2974 38.6748 92.8415V70.9008C39.5797 70.9443 40.4785 70.7735 41.326 70.2923C42.546 69.6 42.841 68.9762 42.6004 68.4079C44.1526 68.3458 44.2069 66.7812 44.1247 65.9492C43.8064 65.5206 43.4898 65.1157 43.1731 64.7354C44.6571 64.7493 46.3956 64.4792 45.9206 63.492C45.5682 62.7592 44.3559 60.8734 42.9046 58.9518C42.6174 58.5715 42.3225 58.1912 42.0229 57.8185C42.4451 57.6526 42.8922 57.5391 43.3594 57.4879C43.555 57.4648 43.7537 57.4537 43.9555 57.4537H95.483C96.7512 57.4537 97.9153 57.9008 98.8249 58.6458C99.941 59.5586 100.677 60.9198 100.757 62.455C100.761 62.5466 100.764 62.6413 100.764 62.7344V73.8002C97.8036 73.9635 94.1093 74.4709 93.8423 75.9829Z" fill="#FFC72C"/>
<path d="M111.011 121.938C109.928 115.28 105.526 97.2699 86.9611 98.1579C74.3866 98.7602 69.9147 104.789 68.7039 110.745C64.3779 105.79 53.5946 101.129 45.4206 98.1222H63.1423L67.7384 108.603L73.4165 98.1222H95.4828C96.4747 98.1222 97.4029 97.849 98.1946 97.374C102.097 100.85 107.511 103.499 112.123 100.308C112.868 102.613 113.434 105.928 113.76 110.728C114.144 116.364 112.228 117.508 111.011 121.938Z" fill="black"/>
<path d="M84.7277 78.0504C79.981 84.7947 68.7802 92.0839 68.7802 92.0839C68.7802 92.0839 57.9658 84.2949 53.8447 77.1484C48.6509 68.1425 59.2557 56.3161 68.7802 70.9644C78.7361 55.4701 92.3724 67.1911 84.7277 78.0504Z" fill="white"/>
<path d="M77.0348 153.495C76.9527 153.495 76.8708 153.462 76.8098 153.398C73.7868 150.216 76.1529 146.927 77.7184 144.75C78.034 144.312 78.332 143.897 78.5458 143.541C78.696 143.291 78.8595 143.068 79.0178 142.853C80.1951 141.252 81.212 139.868 72.9652 128.74C68.0402 122.093 67.279 116.795 67.5076 113.521C67.7577 109.941 69.1783 107.968 69.2385 107.886C69.3399 107.748 69.5343 107.718 69.6723 107.819C69.8105 107.921 69.8404 108.115 69.7392 108.253C69.7254 108.272 68.3519 110.193 68.1238 113.608C67.9127 116.77 68.6679 121.898 73.4639 128.37C81.9836 139.867 80.8409 141.421 79.5179 143.221C79.3681 143.425 79.2132 143.635 79.078 143.86C78.8509 144.239 78.5456 144.663 78.2223 145.113C76.6898 147.243 74.5909 150.161 77.2596 152.97C77.3777 153.094 77.3727 153.291 77.2484 153.409C77.1885 153.466 77.1117 153.495 77.0348 153.495Z" fill="#001B47"/>
<path d="M85.4355 142.041C85.4353 142.041 85.4353 142.041 85.4352 142.041C84.5049 142.041 83.5984 141.526 82.7404 140.51C81.9427 139.565 81.6959 138.802 81.9857 138.178C82.3708 137.349 83.6568 136.946 85.9168 136.946C87.7935 136.946 89.6381 137.23 89.7157 137.242C89.8099 137.257 89.8924 137.314 89.9389 137.397C89.9855 137.48 89.9911 137.581 89.9543 137.668C89.8795 137.847 88.0915 142.041 85.4355 142.041ZM85.9168 137.567C83.3392 137.567 82.7002 138.114 82.5488 138.44C82.3307 138.909 82.7906 139.607 83.2149 140.109C83.9494 140.979 84.6963 141.42 85.4353 141.42C87.2697 141.42 88.7273 138.788 89.2105 137.799C88.5601 137.714 87.2305 137.567 85.9168 137.567Z" fill="#001B47"/>
<path d="M95.4325 142.931C94.6771 142.931 94.0152 142.566 93.5689 141.904C92.0065 139.585 90.5483 137.43 90.5483 137.43C90.4533 137.29 90.4884 137.099 90.6273 137.002C90.7428 136.921 93.4803 135.022 95.7416 135.022C97.149 135.022 98.1006 135.765 98.4937 137.172C98.9572 138.831 98.72 140.446 97.8427 141.602C97.2111 142.434 96.31 142.931 95.4325 142.931ZM91.2383 137.342C91.6714 137.982 92.8448 139.718 94.0838 141.557C94.4158 142.05 94.8823 142.31 95.4325 142.31C96.1171 142.31 96.8331 141.905 97.3481 141.227C98.1069 140.227 98.3065 138.81 97.8956 137.34C97.5766 136.198 96.8721 135.643 95.7414 135.643C94.0484 135.643 91.9554 136.882 91.2383 137.342Z" fill="#001B47"/>
<path d="M89.6678 145.31C89.6227 145.31 89.5769 145.3 89.5336 145.279C89.379 145.205 89.3138 145.019 89.388 144.865C91.9629 139.5 89.8446 135.522 89.823 135.482C89.7406 135.332 89.7953 135.143 89.9453 135.061C90.0951 134.978 90.2837 135.032 90.3666 135.182C90.4617 135.354 92.6677 139.466 89.9478 145.133C89.8944 145.245 89.7834 145.31 89.6678 145.31Z" fill="#001B47"/>
<path d="M63.1103 139.799C61.8336 139.799 61.5656 139.352 61.5656 138.976V137.256C61.5656 137.206 61.5777 137.157 61.6008 137.112C61.7037 136.915 64.1573 132.276 67.2571 132.276C68.208 132.276 69.1117 132.714 69.9428 133.577C71.0096 134.684 70.919 135.657 70.6549 136.278C69.7261 138.462 65.2423 139.799 63.1103 139.799ZM62.1865 137.334V138.977C62.1865 139.008 62.3569 139.178 63.1103 139.178C65.3275 139.178 69.3209 137.828 70.0835 136.035C70.3648 135.373 70.1725 134.71 69.4956 134.008C68.786 133.271 68.0329 132.898 67.2571 132.898C64.7115 132.898 62.4904 136.78 62.1865 137.334Z" fill="#001B47"/>
<path d="M54.5711 141.396C54.5709 141.396 54.5711 141.396 54.5711 141.396C52.8605 141.396 51.6251 140.6 50.9983 139.096C50.7002 138.38 50.7134 137.771 51.0373 137.285C51.5649 136.494 52.8613 136.109 55.0007 136.109C58.0844 136.109 61.9047 136.944 61.9429 136.953C62.0439 136.975 62.1273 137.046 62.165 137.143C62.2027 137.239 62.19 137.348 62.131 137.433C60.9822 139.087 57.5503 141.396 54.5711 141.396ZM55.0007 136.73C52.6477 136.73 51.8277 137.219 51.5539 137.629C51.3493 137.936 51.355 138.338 51.5714 138.857C52.1017 140.129 53.1108 140.775 54.5708 140.775C57.0851 140.775 60.0461 138.928 61.3226 137.459C60.2063 137.238 57.3741 136.73 55.0007 136.73Z" fill="#001B47"/>
<path d="M58.0391 145.31C57.8677 145.31 57.7286 145.171 57.7286 144.999C57.7286 144.828 57.8677 144.689 58.0391 144.689C60.041 144.689 61.5656 137.426 61.5656 133.792C61.5656 133.621 61.7047 133.482 61.876 133.482C62.0474 133.482 62.1865 133.621 62.1865 133.792C62.1865 137.237 60.7755 145.31 58.0391 145.31Z" fill="#001B47"/>
<path d="M61.9876 57.7655C61.8928 57.7655 61.7987 57.7225 61.7372 57.6415C61.3549 57.1376 61.567 54.7688 61.6759 53.7738C61.6947 53.6034 61.8479 53.4809 62.0183 53.4989C62.1888 53.5175 62.3119 53.6707 62.2932 53.8413C62.1355 55.2824 62.0744 57.004 62.2347 57.27C62.3382 57.4066 62.3101 57.5994 62.1736 57.7031C62.1181 57.7453 62.0526 57.7655 61.9876 57.7655Z" fill="#001B47"/>
<path d="M78.945 57.2042C78.7778 57.2042 78.6398 57.0714 78.6349 56.9031C78.5889 55.3703 79.5588 54.363 81.2959 54.1397C82.2836 54.0135 82.3239 54.1865 82.3624 54.3543C82.3981 54.51 82.3086 54.6685 82.1571 54.7194C82.0971 54.7394 82.0354 54.7404 81.9784 54.725C81.7212 54.7044 80.535 54.7395 79.8231 55.3861C79.4275 55.7456 79.2365 56.2498 79.2555 56.8846C79.2606 57.056 79.1259 57.1989 78.9545 57.2042C78.9514 57.2042 78.9481 57.2042 78.945 57.2042Z" fill="#001B47"/>
<path d="M93.842 76.2933C93.7805 76.2933 93.7186 76.2751 93.6643 76.2372C93.5238 76.139 93.4896 75.9454 93.5879 75.8049C93.6795 75.6741 95.9317 72.6069 104.55 73.501C104.721 73.5187 104.845 73.6713 104.827 73.8417C104.81 74.0124 104.658 74.1366 104.486 74.1185C96.2265 73.2607 94.1169 76.1317 94.0966 76.1607C94.0363 76.247 93.9398 76.2933 93.842 76.2933Z" fill="#001B47"/>
<path d="M95.04 82.5822C94.8823 82.5822 94.7474 82.463 94.7316 82.3028C94.7277 82.2629 94.6415 81.3148 95.207 80.3013C95.7216 79.379 96.8934 78.2243 99.5534 77.9618C104.308 77.4923 106.722 78.8402 107.344 80.1373C107.418 80.2919 107.353 80.4774 107.198 80.5515C107.044 80.6259 106.858 80.5606 106.784 80.4059C106.353 79.5075 104.358 78.1116 99.6144 78.5798C95.1078 79.0246 95.3376 82.1118 95.3497 82.243C95.3652 82.4133 95.2401 82.5646 95.07 82.5809C95.0599 82.5817 95.0499 82.5822 95.04 82.5822Z" fill="#001B47"/>
<path d="M107.579 86.1777C107.43 86.1777 107.298 86.0696 107.273 85.9171C106.825 83.165 105.748 83.1972 102.178 83.3016C101.724 83.315 101.235 83.3294 100.708 83.3386C96.4604 83.4125 96.4007 85.7662 96.4002 85.8664C96.3994 86.037 96.2611 86.176 96.0905 86.1765C96.0904 86.1765 96.0901 86.1765 96.0898 86.1765C95.9195 86.1765 95.781 86.0404 95.7793 85.8701C95.779 85.8393 95.8066 82.8026 100.698 82.7175C101.222 82.7084 101.709 82.6942 102.16 82.6809C105.724 82.5763 107.351 82.5281 107.886 85.8172C107.914 85.9863 107.799 86.1459 107.63 86.1734C107.613 86.1765 107.596 86.1777 107.579 86.1777Z" fill="#001B47"/>
<path d="M42.2493 64.83C42.1898 64.83 42.1298 64.8131 42.0767 64.7774C34.9427 59.9955 36.2465 55.3405 36.3055 55.1446C36.355 54.9804 36.5286 54.8885 36.6923 54.9369C36.8561 54.9863 36.9491 55.1589 36.9003 55.3226C36.8846 55.3771 35.7051 59.7589 42.4225 64.2616C42.5648 64.357 42.603 64.5498 42.5074 64.6922C42.4475 64.7817 42.3492 64.83 42.2493 64.83Z" fill="#001B47"/>
<path d="M116.699 91.2243C116.534 91.2243 116.397 91.0942 116.389 90.9275C116.167 85.8883 114.225 82.0176 110.617 79.4227C107.927 77.488 105.282 77.0317 105.256 77.0272C105.087 76.9991 104.972 76.8392 105 76.67C105.028 76.501 105.189 76.3872 105.358 76.4147C105.471 76.4335 108.173 76.9001 110.979 78.9184C113.571 80.7826 116.722 84.3746 117.009 90.9C117.017 91.0714 116.884 91.2162 116.713 91.2238C116.709 91.2241 116.704 91.2243 116.699 91.2243Z" fill="#001B47"/>
<path d="M42.5999 68.7185C42.5498 68.7185 42.499 68.7064 42.4518 68.6808L33.4986 63.813C33.348 63.7312 33.2923 63.5426 33.3741 63.392C33.4561 63.2413 33.6445 63.1857 33.7952 63.2675L42.7484 68.1353C42.899 68.2171 42.9547 68.4057 42.8729 68.5563C42.8167 68.6598 42.7101 68.7185 42.5999 68.7185Z" fill="#001B47"/>
<path d="M38.6264 71.2132C37.0229 71.2132 31.339 67.3297 30.6863 66.88C30.545 66.7829 30.5095 66.5895 30.6068 66.4484C30.7041 66.3074 30.8974 66.2714 31.0387 66.3689C33.4735 68.0464 37.6907 70.6798 38.6475 70.5915C38.8167 70.578 38.9689 70.7027 38.984 70.8734C38.999 71.0443 38.8729 71.1949 38.7021 71.2099C38.6779 71.2121 38.6526 71.2132 38.6264 71.2132Z" fill="#001B47"/>
<path d="M67.7813 114.888C67.6551 114.888 67.5364 114.81 67.4901 114.685C67.475 114.644 65.9542 110.609 63.4118 109.957C63.2457 109.914 63.1456 109.745 63.1882 109.579C63.2308 109.413 63.3998 109.312 63.5661 109.355C66.4243 110.088 68.0065 114.291 68.0725 114.47C68.1319 114.631 68.0498 114.809 67.889 114.868C67.8533 114.882 67.817 114.888 67.7813 114.888Z" fill="#001B47"/>
<path d="M63.4888 104.919C63.4517 104.919 63.4144 104.906 63.3848 104.879C59.1975 101.096 54.01 98.291 53.958 98.263C53.8824 98.2224 53.8541 98.1284 53.8947 98.0529C53.9352 97.9773 54.0292 97.9487 54.1048 97.9897C54.1571 98.0178 59.3779 100.841 63.5928 104.648C63.6564 104.706 63.6614 104.804 63.604 104.868C63.5734 104.901 63.5312 104.919 63.4888 104.919Z" fill="white"/>
<path d="M113.481 115.336C113.407 115.336 113.342 115.284 113.329 115.209C111.262 103.719 107.122 104.005 107.081 104.007C106.996 104.015 106.919 103.954 106.91 103.869C106.901 103.784 106.962 103.708 107.047 103.698C107.227 103.676 111.508 103.331 113.634 115.154C113.649 115.238 113.593 115.319 113.509 115.334C113.499 115.336 113.49 115.336 113.481 115.336Z" fill="white"/>
<path d="M108.434 112.712L108.396 112.561L108.429 112.41L108.396 112.561L108.298 112.441C108.337 112.406 112.165 108.522 111.807 103.862C111.8 103.776 111.864 103.702 111.949 103.695C112.036 103.689 112.11 103.752 112.116 103.838C112.481 108.576 108.631 112.663 108.434 112.712Z" fill="white"/>
</svg>
