<?xml version="1.0" encoding="UTF-8"?><svg xmlns="http://www.w3.org/2000/svg" xmlns:xlink="http://www.w3.org/1999/xlink" version="1.1" id="Layer_1" x="0px" y="0px" viewBox="0 0 24 24" xml:space="preserve"><path fill="#FFCE34" d="M13 1h1.5v12.697H13z"/><path opacity="0.05" d="M13 1h1.5v12.697H13z"/><path fill="#FFCE34" d="M6.5.5H8v12.697H6.5z"/><path opacity="0.05" d="M6.5.5H8v12.697H6.5z"/><path fill="#FFCE34" d="M10.5 0h3v12.697h-3z"/><path fill="#FFCE34" d="M4 0h3v12.697H4z"/><path opacity="0.2" fill="#FFF" d="M4 0h3v.25H4z"/><path fill="#FFCE34" d="M7.5 1h3v12.697h-3z"/><path fill="#FFCE34" d="M14 0h3v12.697h-3z"/><path fill="#FFCE34" d="M17 0h3v12.697h-3z"/><path opacity="0.2" fill="#FFF" d="M7.5 1h3v.25h-3z"/><path opacity="0.2" fill="#FFF" d="M10.5 0h3v.25h-3z"/><path opacity="0.2" fill="#FFF" d="M14 0h3v.25h-3z"/><path opacity="0.2" fill="#FFF" d="M17 0h3v.25h-3z"/><linearGradient id="SVGID_1_" gradientUnits="userSpaceOnUse" x1="15.2904882" y1="2.290488" x2="19.6446838" y2="6.6446838"><stop offset="0" stop-color="#000" stop-opacity="0.1"/><stop offset="1" stop-color="#000" stop-opacity="0"/></linearGradient><path fill="url(#SVGID_1_)" d="M17 0l3 3v5h-3z"/><linearGradient id="SVGID_2_" gradientUnits="userSpaceOnUse" x1="8.1847267" y1="4.0393386" x2="13.6113253" y2="9.4659367"><stop offset="0" stop-color="#000" stop-opacity="0.1"/><stop offset="1" stop-color="#000" stop-opacity="0"/></linearGradient><path fill="url(#SVGID_2_)" d="M12 12c.539 0 1.044-.072 1.5-.29V4l-3-3v10.71c.456.218.961.29 1.5.29z"/><path fill="#E83628" d="M16 8a4 4 0 0 1-8 0H3l1.89 15.124a1 1 0 0 0 .993.876h12.234a1 1 0 0 0 .992-.876L21 8h-5z"/><path opacity="0.1" d="M16.071 8H16c0 .478-.098.93-.252 1.356.189-.419.293-.877.323-1.356z"/><path opacity="0.1" d="M8.252 9.356A3.964 3.964 0 0 1 8 8h-.071c.03.479.134.937.323 1.356z"/><path opacity="0.1" d="M18.266 23.75H5.734c-.302 0-.577-.138-.765-.344.158.35.512.594.914.594h12.234c.402 0 .757-.244.914-.594a1.043 1.043 0 0 1-.765.344z"/><path opacity="0.2" fill="#FFF" d="M8 8.25a4 4 0 0 0 8 0h4.969L21 8h-5a4 4 0 0 1-8 0H3l.031.25H8z"/><linearGradient id="SVGID_3_" gradientUnits="userSpaceOnUse" x1="0.9808984" y1="6.474484" x2="22.2926559" y2="16.4123192"><stop offset="0" stop-color="#FFF" stop-opacity="0.2"/><stop offset="1" stop-color="#FFF" stop-opacity="0"/></linearGradient><path fill="url(#SVGID_3_)" d="M20 8V0h-6v1h-.5V0h-3v1H8V.5H7V0H4v8H3l1.89 15.124a1 1 0 0 0 .993.876h12.234a1 1 0 0 0 .992-.876L21 8h-1z"/><metadata><rdf:RDF xmlns:rdf="http://www.w3.org/1999/02/22-rdf-syntax-ns#" xmlns:rdfs="http://www.w3.org/2000/01/rdf-schema#" xmlns:dc="http://purl.org/dc/elements/1.1/"><rdf:Description about="https://iconscout.com/legal#licenses" dc:title="food,eat,french,fries,fast" dc:description="food,eat,french,fries,fast" dc:publisher="Iconscout" dc:date="2017-10-16" dc:format="image/svg+xml" dc:language="en"><dc:creator><rdf:Bag><rdf:li>Those Icons</rdf:li></rdf:Bag></dc:creator></rdf:Description></rdf:RDF></metadata></svg>