<?xml version="1.0" encoding="UTF-8" standalone="no"?>
<svg xmlns:dc="http://purl.org/dc/elements/1.1/" xmlns:cc="http://creativecommons.org/ns#" xmlns:rdf="http://www.w3.org/1999/02/22-rdf-syntax-ns#" xmlns:svg="http://www.w3.org/2000/svg" xmlns="http://www.w3.org/2000/svg" xmlns:xlink="http://www.w3.org/1999/xlink" xmlns:sodipodi="http://sodipodi.sourceforge.net/DTD/sodipodi-0.dtd" xmlns:inkscape="http://www.inkscape.org/namespaces/inkscape" width="512" height="512" id="svg6330" version="1.1" inkscape:version="0.48.5 r" sodipodi:docname="hamburger_burger_chicken_beef_fast_junk_food.svg">
  <sodipodi:namedview id="base" pagecolor="#ffffff" bordercolor="#666666" borderopacity="1.0" inkscape:pageopacity="0.0" inkscape:pageshadow="2" inkscape:zoom="0.7" inkscape:cx="152.86382" inkscape:cy="241.26794" inkscape:document-units="px" inkscape:current-layer="layer1" showgrid="false" inkscape:window-width="1366" inkscape:window-height="713" inkscape:window-x="0" inkscape:window-y="26" inkscape:window-maximized="1"/>
  <defs id="defs6332">
    <clipPath id="clipPath6036" clipPathUnits="userSpaceOnUse">
      <rect ry="45.206226" transform="matrix(0.69746123,0.71662252,-0.71662252,0.69746123,0,0)" y="-966.37457" x="2455.9966" height="565.12183" width="565.12183" id="rect6038" style="fill:#4bb7c0;fill-opacity:1;stroke:none"/>
    </clipPath>
    <clipPath id="clipPath6032" clipPathUnits="userSpaceOnUse">
      <rect ry="39.996883" transform="matrix(0.69822521,0.71587817,-0.71587817,0.69822521,0,0)" y="-957.62305" x="2488.5369" height="500" width="500" id="rect6034" style="fill:#4bb7c0;fill-opacity:1;stroke:none"/>
    </clipPath>
    <clipPath id="clipPath6028" clipPathUnits="userSpaceOnUse">
      <rect ry="39.996883" transform="matrix(0.69822521,0.71587817,-0.71587817,0.69822521,0,0)" y="-957.62305" x="2488.5369" height="500" width="500" id="rect6030" style="fill:#4bb7c0;fill-opacity:1;stroke:none"/>
    </clipPath>
    <clipPath id="clipPath6024" clipPathUnits="userSpaceOnUse">
      <rect ry="39.996883" transform="matrix(0.69822521,0.71587817,-0.71587817,0.69822521,0,0)" y="-957.62305" x="2488.5369" height="500" width="500" id="rect6026" style="fill:#4bb7c0;fill-opacity:1;stroke:none"/>
    </clipPath>
    <clipPath id="clipPath6020" clipPathUnits="userSpaceOnUse">
      <rect ry="45.336536" transform="matrix(0.69822521,0.71587817,-0.71587817,0.69822521,0,0)" y="577.21405" x="217.15213" height="566.75085" width="566.75085" id="rect6022" style="fill:#4bb7c0;fill-opacity:1;stroke:none"/>
    </clipPath>
    <clipPath id="clipPath6016" clipPathUnits="userSpaceOnUse">
      <rect ry="64.500763" transform="matrix(0.69822521,0.71587817,-0.71587817,0.69822521,0,0)" y="320.29175" x="261.48016" height="806.32233" width="806.32233" id="rect6018" style="fill:#4bb7c0;fill-opacity:1;stroke:none"/>
    </clipPath>
    <clipPath id="clipPath4233" clipPathUnits="userSpaceOnUse">
      <rect ry="21.508305" transform="matrix(0.52410052,0.85165641,-0.8524896,0.52274419,0,0)" y="849.09058" x="-1025.5917" height="268.87476" width="268.86407" id="rect4235" style="fill:#e74c3c;fill-opacity:1;stroke:none"/>
    </clipPath>
    <clipPath id="clipPath4229" clipPathUnits="userSpaceOnUse">
      <rect ry="21.508305" transform="matrix(0.52410052,0.85165641,-0.8524896,0.52274419,0,0)" y="907.04327" x="-1061.6046" height="268.87476" width="268.86407" id="rect4231" style="fill:#e74c3c;fill-opacity:1;stroke:none"/>
    </clipPath>
    <clipPath id="clipPath4225" clipPathUnits="userSpaceOnUse">
      <rect ry="42.065926" transform="matrix(0.89784133,-0.44031915,0.49564639,0.86852441,0,0)" y="922.64789" x="-912.49585" height="525.86505" width="479.327" id="rect4227" style="fill:#e74c3c;fill-opacity:1;stroke:none"/>
    </clipPath>
    <clipPath id="clipPath4221" clipPathUnits="userSpaceOnUse">
      <rect ry="39.984688" transform="matrix(0.52355402,0.85199248,-0.85215436,0.5232905,0,0)" y="876.99933" x="-952.14172" height="499.84753" width="500.15265" id="rect4223" style="fill:#e74c3c;fill-opacity:1;stroke:none"/>
    </clipPath>
    <clipPath id="clipPath4217" clipPathUnits="userSpaceOnUse">
      <rect ry="42.13382" transform="matrix(0.8834548,-0.4685164,0.51826787,0.85521834,0,0)" y="924.13708" x="-910.73779" height="526.71381" width="478.40347" id="rect4219" style="fill:#e74c3c;fill-opacity:1;stroke:none"/>
    </clipPath>
    <clipPath id="clipPath4213" clipPathUnits="userSpaceOnUse">
      <rect ry="41.006496" transform="matrix(0.87899006,-0.47684009,0.50225836,0.86471761,0,0)" y="899.41107" x="-930.26978" height="512.62115" width="488.66348" id="rect4215" style="fill:#e74c3c;fill-opacity:1;stroke:none"/>
    </clipPath>
    <clipPath id="clipPath4209" clipPathUnits="userSpaceOnUse">
      <rect ry="40.751255" transform="matrix(0.87483983,-0.4844123,0.50320006,0.86416995,0,0)" y="893.81281" x="-935.28113" height="509.43039" width="491.2959" id="rect4211" style="fill:#e74c3c;fill-opacity:1;stroke:none"/>
    </clipPath>
    <clipPath id="clipPath4205" clipPathUnits="userSpaceOnUse">
      <rect ry="40.539223" transform="matrix(0.8716852,-0.49006623,0.50349168,0.86400007,0,0)" y="889.16217" x="-939.66803" height="506.77979" width="493.60031" id="rect4207" style="fill:#e74c3c;fill-opacity:1;stroke:none"/>
    </clipPath>
    <clipPath id="clipPath4201" clipPathUnits="userSpaceOnUse">
      <rect ry="20.419277" transform="matrix(0.95679779,-0.29075418,0.28923075,0.95725941,0,0)" y="-940.76385" x="-1362.5282" height="255.26085" width="255.2507" id="rect4203" style="fill:#e74c3c;fill-opacity:1;stroke:none"/>
    </clipPath>
    <clipPath id="clipPath4197" clipPathUnits="userSpaceOnUse">
      <rect ry="20.419277" transform="matrix(-0.52410054,0.8516564,0.8524896,0.52274419,0,0)" y="-1027.9303" x="768.85443" height="255.26085" width="255.2507" id="rect4199" style="fill:#e74c3c;fill-opacity:1;stroke:none"/>
    </clipPath>
    <clipPath id="clipPath4193" clipPathUnits="userSpaceOnUse">
      <rect ry="20.419277" transform="matrix(0.52410054,0.8516564,-0.8524896,0.52274419,0,0)" y="1085.0674" x="-631.77954" height="255.26085" width="255.2507" id="rect4195" style="fill:#e74c3c;fill-opacity:1;stroke:none"/>
    </clipPath>
    <clipPath id="clipPath4189" clipPathUnits="userSpaceOnUse">
      <rect ry="24.49465" transform="matrix(0.47084123,0.88221796,-0.81651743,0.57732078,0,0)" y="1114.4529" x="-726.83545" height="306.20697" width="326.44824" id="rect4191" style="fill:#e74c3c;fill-opacity:1;stroke:none"/>
    </clipPath>
    <clipPath id="clipPath4185" clipPathUnits="userSpaceOnUse">
      <rect ry="19.455727" transform="matrix(-0.72847338,-0.68507411,0.93278596,-0.36043079,0,0)" y="-1122.924" x="941.11481" height="243.21553" width="197.54875" id="rect4187" style="fill:#e74c3c;fill-opacity:1;stroke:none"/>
    </clipPath>
    <clipPath id="clipPath4181" clipPathUnits="userSpaceOnUse">
      <rect ry="48.993164" transform="matrix(0.37049589,0.92883411,-0.72643779,0.68723223,0,0)" y="1406.3309" x="-1963.3959" height="612.46228" width="738.2486" id="rect4183" style="fill:#e74c3c;fill-opacity:1;stroke:none"/>
    </clipPath>
    <clipPath id="clipPath4177" clipPathUnits="userSpaceOnUse">
      <rect ry="48.993164" transform="matrix(0.37049589,0.92883411,-0.72643779,0.68723223,0,0)" y="1528.1174" x="-2053.5042" height="612.46228" width="738.2486" id="rect4179" style="fill:#e74c3c;fill-opacity:1;stroke:none"/>
    </clipPath>
    <clipPath id="clipPath4849-5" clipPathUnits="userSpaceOnUse">
      <rect transform="matrix(0.99870437,-0.05088783,0.05088783,0.99870437,0,0)" ry="56.040947" y="248.69154" x="3656.2117" height="894.64886" width="894.64886" id="rect4851-2" style="fill:url(#radialGradient4853);fill-opacity:1;stroke:none"/>
    </clipPath>
    <clipPath id="clipPath4843-6" clipPathUnits="userSpaceOnUse">
      <rect transform="matrix(-0.85062975,-0.52576519,0.52576519,-0.85062975,0,0)" ry="40.247322" y="2284.5334" x="-4295.4541" height="642.51624" width="642.51624" id="rect4845-7" style="fill:url(#radialGradient4847);fill-opacity:1;stroke:none"/>
    </clipPath>
    <clipPath id="clipPath4418-1-2" clipPathUnits="userSpaceOnUse">
      <rect transform="matrix(0.57261435,-0.81982486,0.81982486,0.57261435,0,0)" y="3657.4304" x="1637.4567" height="395.9798" width="242.43661" id="rect4420-7-5" style="fill:#ca4638;fill-opacity:1;stroke:none"/>
    </clipPath>
    <clipPath id="clipPath5614" clipPathUnits="userSpaceOnUse">
      <rect ry="58.439968" transform="matrix(0.51440869,0.85754516,-0.85754516,0.51440869,0,0)" y="-530.1134" x="-1439.5911" height="730.55652" width="730.55652" id="rect5616" style="fill:#e16b5a;fill-opacity:1;stroke:none"/>
    </clipPath>
    <clipPath id="clipPath9068" clipPathUnits="userSpaceOnUse">
      <g id="g9070" transform="matrix(0.68391552,0,0,0.68391552,5279.5789,1875.5539)">
        <rect style="fill:#e16b5a;fill-opacity:1;stroke:none" id="rect9072" width="500" height="500" x="-49.889172" y="-457.92505" transform="matrix(0.69822521,0.71587817,-0.71587817,0.69822521,0,0)" ry="39.996883"/>
      </g>
    </clipPath>
    <clipPath id="clipPath5614-5" clipPathUnits="userSpaceOnUse">
      <rect ry="58.439968" transform="matrix(0.51440869,0.85754516,-0.85754516,0.51440869,0,0)" y="-530.1134" x="-1439.5911" height="730.55652" width="730.55652" id="rect5616-7" style="fill:#e16b5a;fill-opacity:1;stroke:none"/>
    </clipPath>
    <radialGradient r="239.18384" fy="1.416748" fx="-667.37592" cy="1.416748" cx="-667.37592" gradientTransform="translate(1966.3245,1863.2188)" gradientUnits="userSpaceOnUse" id="radialGradient5569" xlink:href="#linearGradient4030-6" inkscape:collect="always"/>
    <linearGradient id="linearGradient4030-6">
      <stop id="stop4032-5" offset="0" style="stop-color:#f2cf89;stop-opacity:1;"/>
      <stop id="stop4034-4" offset="1" style="stop-color:#f2cf62;stop-opacity:1;"/>
    </linearGradient>
    <radialGradient inkscape:collect="always" xlink:href="#linearGradient4030-6" id="radialGradient3064" gradientUnits="userSpaceOnUse" gradientTransform="translate(665.10827,459.42577)" cx="-667.37592" cy="1.416748" fx="-667.37592" fy="1.416748" r="239.18384"/>
    <radialGradient r="239.18384" fy="1.416748" fx="-667.37592" cy="1.416748" cx="-667.37592" gradientTransform="translate(-71.735822,-202.3859)" gradientUnits="userSpaceOnUse" id="radialGradient3105" xlink:href="#linearGradient4030-6" inkscape:collect="always"/>
    <clipPath id="clipPath36314" clipPathUnits="userSpaceOnUse">
      <path sodipodi:type="arc" style="fill:#e74c3c;fill-opacity:1;stroke:none" id="path36316" sodipodi:cx="-64.623535" sodipodi:cy="50.047192" sodipodi:rx="38.553814" sodipodi:ry="38.553814" d="m -26.069721,50.047192 a 38.553814,38.553814 0 1 1 -77.107629,0 38.553814,38.553814 0 1 1 77.107629,0 z" transform="translate(66.181344,148.44368)"/>
    </clipPath>
    <clipPath id="clipPath3854-7-8-5" clipPathUnits="userSpaceOnUse">
      <path sodipodi:type="arc" style="fill:#9adbb6;fill-opacity:1;stroke:none" id="path3856-5-6-5" sodipodi:cx="251.42857" sodipodi:cy="229.14285" sodipodi:rx="205.71428" sodipodi:ry="205.71428" d="m 457.14285,229.14285 a 205.71428,205.71428 0 1 1 -411.428556,0 205.71428,205.71428 0 1 1 411.428556,0 z" transform="matrix(-2.1731299,0,0,-1.9867681,1059.6411,427.56925)"/>
    </clipPath>
    <clipPath id="clipPath3340" clipPathUnits="userSpaceOnUse">
      <path sodipodi:type="arc" style="fill:#9adbb6;fill-opacity:1;stroke:none" id="path3342" sodipodi:cx="251.42857" sodipodi:cy="229.14285" sodipodi:rx="205.71428" sodipodi:ry="205.71428" d="m 457.14285,229.14285 a 205.71428,205.71428 0 1 1 -411.428556,0 205.71428,205.71428 0 1 1 411.428556,0 z" transform="matrix(-2.1731299,0,0,-1.9867681,1059.6411,427.56925)"/>
    </clipPath>
    <clipPath id="clipPath3854-7-8-5-8" clipPathUnits="userSpaceOnUse">
      <path sodipodi:type="arc" style="fill:#9adbb6;fill-opacity:1;stroke:none" id="path3856-5-6-5-7" sodipodi:cx="251.42857" sodipodi:cy="229.14285" sodipodi:rx="205.71428" sodipodi:ry="205.71428" d="m 457.14285,229.14285 a 205.71428,205.71428 0 1 1 -411.428556,0 205.71428,205.71428 0 1 1 411.428556,0 z" transform="matrix(-2.1731299,0,0,-1.9867681,1059.6411,427.56925)"/>
    </clipPath>
    <clipPath clipPathUnits="userSpaceOnUse" id="clipPath3826">
      <path sodipodi:type="arc" style="fill:#4086cd;fill-opacity:1;stroke:none" id="path3828" sodipodi:cx="-600" sodipodi:cy="246.28572" sodipodi:rx="242.85715" sodipodi:ry="242.85715" d="m -357.14285,246.28572 a 242.85715,242.85715 0 1 1 -485.7143,0 242.85715,242.85715 0 1 1 485.7143,0 z" transform="matrix(0.98823528,0,0,0.98823528,848.94117,12.61176)"/>
    </clipPath>
  </defs>
  
  <g transform="translate(0,-540.36218)" id="layer1" inkscape:groupmode="layer" inkscape:label="Layer 1">
    <g transform="matrix(1.5029311,0,0,1.5029311,-133.68855,-482.65198)" id="g4558">
      <g id="g3078" transform="matrix(-1.0366259,0,0,-0.48343333,-44.347279,1340.8641)" style="fill:#3b3c3d">
        <path sodipodi:type="arc" style="fill:#f38e2b;fill-opacity:1;stroke:#f38e2b;stroke-width:25;stroke-miterlimit:4;stroke-opacity:1;stroke-dasharray:none" id="path3074" sodipodi:cx="63.63961" sodipodi:cy="148.34509" sodipodi:rx="119.198" sodipodi:ry="155.06165" d="m 182.83761,148.34509 c 0,85.63818 -53.36676,155.06165 -119.198,155.06165 -65.8312362,0 -119.197998,-69.42347 -119.197998,-155.06165 0,-7.27855 0.39395,-14.54808 1.178928,-21.75465" transform="matrix(-1.1113003,0.07508691,-0.08477219,-0.98433343,-209.01618,1066.5953)" sodipodi:start="0" sodipodi:end="3.2823538" sodipodi:open="true"/>
        <path sodipodi:open="true" sodipodi:end="3.2823538" sodipodi:start="0" transform="matrix(1.2167012,-0.0285836,0.09281238,0.37470986,-383.56332,881.95462)" d="m 182.83761,148.34509 c 0,65.83124 -53.36676,119.198 -119.198,119.198 -65.8312362,0 -119.197998,-53.36676 -119.197998,-119.198 0,-5.59512 0.39395,-11.1833 1.178928,-16.72309" sodipodi:ry="119.198" sodipodi:rx="119.198" sodipodi:cy="148.34509" sodipodi:cx="63.63961" id="path3076" style="fill:#f38e2b;fill-opacity:1;stroke:none" sodipodi:type="arc"/>
      </g>
      <g id="g3865" transform="matrix(1.0366259,0,0,0.91214475,563.21964,27.881306)" style="fill:#601f05;fill-opacity:1">
        <path sodipodi:type="arc" style="fill:#601f05;fill-opacity:1;stroke:#601f05;stroke-width:25;stroke-miterlimit:4;stroke-opacity:1;stroke-dasharray:none" id="path3867" sodipodi:cx="63.63961" sodipodi:cy="148.34509" sodipodi:rx="119.198" sodipodi:ry="119.198" d="m 182.83761,148.34509 c 0,65.83124 -53.36676,119.198 -119.198,119.198 -65.8312362,0 -119.197998,-53.36676 -119.197998,-119.198 0,-5.59512 0.39395,-11.1833 1.178928,-16.72309" transform="matrix(-1.1113003,0.07508691,-0.08477219,-0.98433343,-209.01618,1066.5953)" sodipodi:start="0" sodipodi:end="3.2823538" sodipodi:open="true"/>
        <path sodipodi:open="true" sodipodi:end="3.2823538" sodipodi:start="0" transform="matrix(1.2167012,-0.0285836,0.09281238,0.37470986,-383.56332,881.95462)" d="m 182.83761,148.34509 c 0,87.79997 -53.36676,158.97591 -119.198,158.97591 -65.8312362,0 -119.197998,-71.17594 -119.197998,-158.97591 0,-7.46229 0.39395,-14.91532 1.178928,-22.3038" sodipodi:ry="158.97591" sodipodi:rx="119.198" sodipodi:cy="148.34509" sodipodi:cx="63.63961" id="path3869" style="fill:#601f05;fill-opacity:1;stroke:none" sodipodi:type="arc"/>
      </g>
      <g style="fill:#e74c3c" transform="matrix(1.0366259,0,0,0.91214475,562.50535,7.8813061)" id="g3859">
        <path sodipodi:open="true" sodipodi:end="3.2823538" sodipodi:start="0" transform="matrix(-1.1113003,0.07508691,-0.08477219,-0.98433343,-209.01618,1066.5953)" d="m 182.83761,148.34509 c 0,65.83124 -53.36676,119.198 -119.198,119.198 -65.8312362,0 -119.197998,-53.36676 -119.197998,-119.198 0,-5.59512 0.39395,-11.1833 1.178928,-16.72309" sodipodi:ry="119.198" sodipodi:rx="119.198" sodipodi:cy="148.34509" sodipodi:cx="63.63961" id="path3861" style="fill:#e74c3c;fill-opacity:1;stroke:#e74c3c;stroke-width:25;stroke-miterlimit:4;stroke-opacity:1;stroke-dasharray:none" sodipodi:type="arc"/>
        <path sodipodi:type="arc" style="fill:#e74c3c;fill-opacity:1;stroke:none" id="path3863" sodipodi:cx="63.63961" sodipodi:cy="148.34509" sodipodi:rx="119.198" sodipodi:ry="142.1821" d="m 182.83761,148.34509 c 0,78.52501 -53.36676,142.1821 -119.198,142.1821 -65.8312362,0 -119.197998,-63.65709 -119.197998,-142.1821 0,-6.67399 0.39395,-13.3397 1.178928,-19.94769" transform="matrix(1.2167012,-0.0285836,0.09281238,0.37470986,-383.56332,881.95462)" sodipodi:start="0" sodipodi:end="3.2823538" sodipodi:open="true"/>
      </g>
      <g id="g6766" transform="matrix(0.04804132,0.75655851,-0.94381719,0.02404505,-882.43937,3666.354)" style="fill:#ffca55;fill-opacity:1">
        <path sodipodi:type="star" style="fill:#ffca55;fill-opacity:1;stroke:none" id="path10169-3-58-7" sodipodi:sides="3" sodipodi:cx="1665.7142" sodipodi:cy="871.42859" sodipodi:r1="139.53275" sodipodi:r2="89.705238" sodipodi:arg1="0.74194726" sodipodi:arg2="1.6119105" inkscape:flatsided="false" inkscape:rounded="0" inkscape:randomized="0" d="m 1768.5714,965.7143 -106.5443,-4.65628 -129.3953,-47.69539 57.3046,-89.94189 106.0031,-88.2119 49.2397,94.59817 z" transform="matrix(0.24523431,0.96946384,-0.96946384,0.24523431,-3276.3276,-3232.9187)" inkscape:transform-center-x="-26.5952" inkscape:transform-center-y="0.78142562"/>
        <path sodipodi:type="arc" style="fill:#ffca55;fill-opacity:1;stroke:none" id="path10195-6-1-3" sodipodi:cx="1721.4286" sodipodi:cy="665.71429" sodipodi:rx="28.571428" sodipodi:ry="114.28571" d="m 1750,665.71429 c 0,63.11826 -12.7918,114.28572 -28.5714,114.28572 -15.7796,0 -28.5714,-51.16746 -28.5714,-114.28572 0,-63.11825 12.7918,-114.28571 28.5714,-114.28571 15.7796,0 28.5714,51.16746 28.5714,114.28571 z" transform="matrix(1,0,0,1.06875,-5507.3161,-2112.051)"/>
        <path sodipodi:type="arc" style="fill:#ffca55;fill-opacity:1;stroke:none" id="path10195-7-82-3-9" sodipodi:cx="1721.4286" sodipodi:cy="665.71429" sodipodi:rx="28.571428" sodipodi:ry="114.28571" d="m 1750,665.71429 c 0,63.11826 -12.7918,114.28572 -28.5714,114.28572 -15.7796,0 -28.5714,-51.16746 -28.5714,-114.28572 0,-63.11825 12.7918,-114.28571 28.5714,-114.28571 15.7796,0 28.5714,51.16746 28.5714,114.28571 z" transform="matrix(-0.51763215,0.93047573,-0.96042749,-0.51113874,-2153.372,-2720.1896)"/>
        <path sodipodi:type="arc" style="fill:#ffca55;fill-opacity:1;stroke:none" id="path10195-7-3-8-59-4" sodipodi:cx="1721.4286" sodipodi:cy="665.71429" sodipodi:rx="28.571428" sodipodi:ry="114.28571" d="m 1750,665.71429 c 0,63.11826 -12.7918,114.28572 -28.5714,114.28572 -15.7796,0 -28.5714,-51.16746 -28.5714,-114.28572 0,-63.11825 12.7918,-114.28571 28.5714,-114.28571 15.7796,0 28.5714,51.16746 28.5714,114.28571 z" transform="matrix(-0.51763215,-0.98538074,-0.96042749,0.54129974,-2153.3719,-11.014066)"/>
      </g>
      <g id="g3993" transform="matrix(1.5255641,0,0,2.0135515,-123.73013,-481.00009)" style="fill:#46b24c;fill-opacity:1">
        <g transform="matrix(1.165735,0,0,1.7271799,17.272192,-479.0086)" id="g3974" style="fill:#46b24c;fill-opacity:1">
          <g id="g5497-3-1-4-8-6" style="fill:#46b24c;fill-opacity:1" transform="matrix(-0.73242275,0,0,0.73242275,337.49662,205.45619)">
            <path sodipodi:end="3.160846" sodipodi:start="0" transform="matrix(-0.55900548,0,0,-0.611441,544.76248,781.28536)" d="m 762.44822,256 c 0,34.40934 -38.94152,62.30362 -86.97831,62.30362 -48.03679,0 -86.97831,-27.89428 -86.97831,-62.30362 0,-0.39985 0.005,-0.7997 0.0161,-1.19948 L 675.46991,256 z" sodipodi:ry="62.303616" sodipodi:rx="86.97831" sodipodi:cy="256" sodipodi:cx="675.46991" id="path5477-7-1-6-9-3" style="fill:#46b24c;fill-opacity:1;stroke:none" sodipodi:type="arc" clip-path="url(#clipPath3854-7-8-5-8)"/>
            <path sodipodi:end="3.160846" sodipodi:start="0" transform="matrix(-0.34586314,0,0,-0.3783056,348.44517,721.88234)" d="m 762.44822,256 c 0,34.40934 -38.94152,62.30362 -86.97831,62.30362 -48.03679,0 -86.97831,-27.89428 -86.97831,-62.30362 0,-0.39985 0.005,-0.7997 0.0161,-1.19948 L 675.46991,256 z" sodipodi:ry="62.303616" sodipodi:rx="86.97831" sodipodi:cy="256" sodipodi:cx="675.46991" id="path5477-5-4-7-2-5-8" style="fill:#46b24c;fill-opacity:1;stroke:none" sodipodi:type="arc"/>
          </g>
          <g id="g3969" transform="translate(9.8698792,-8.6361443)" style="fill:#46b24c;fill-opacity:1">
            <path sodipodi:type="arc" style="fill:#46b24c;fill-opacity:1;stroke:none" id="path3967" sodipodi:cx="675.46991" sodipodi:cy="256" sodipodi:rx="86.97831" sodipodi:ry="62.303616" d="m 762.44822,256 c 0,34.40934 -38.94152,62.30362 -86.97831,62.30362 -48.03679,0 -86.97831,-27.89428 -86.97831,-62.30362 0,-0.39985 0.005,-0.7997 0.0161,-1.19948 L 675.46991,256 z" transform="matrix(-0.21570597,0,0,-0.33203017,315.10905,756.91045)" sodipodi:start="0" sodipodi:end="3.160846"/>
          </g>
        </g>
        <path transform="translate(307.19999,679.77422)" d="m -92.530113,-16.038538 c 0,5.450984 -16.847037,9.8698788 -37.628917,9.8698788 -20.78187,0 -37.62891,-4.4188948 -37.62891,-9.8698788 0,-5.450984 16.84704,-9.869879 37.62891,-9.869879 20.78188,0 37.628917,4.418895 37.628917,9.869879 z" sodipodi:ry="9.8698788" sodipodi:rx="37.628914" sodipodi:cy="-16.038538" sodipodi:cx="-130.15903" id="path3983" style="fill:#46b24c;fill-opacity:1;stroke:none" sodipodi:type="arc"/>
        <path sodipodi:type="arc" style="fill:#46b24c;fill-opacity:1;stroke:none" id="path3985" sodipodi:cx="-130.15903" sodipodi:cy="-16.038538" sodipodi:rx="37.628914" sodipodi:ry="9.8698788" d="m -92.530113,-16.038538 c 0,5.450984 -16.847037,9.8698788 -37.628917,9.8698788 -20.78187,0 -37.62891,-4.4188948 -37.62891,-9.8698788 0,-5.450984 16.84704,-9.869879 37.62891,-9.869879 20.78188,0 37.628917,4.418895 37.628917,9.869879 z" transform="translate(359.01686,683.47542)"/>
        <path transform="translate(423.17107,679.77422)" d="m -92.530113,-16.038538 c 0,5.450984 -16.847037,9.8698788 -37.628917,9.8698788 -20.78187,0 -37.62891,-4.4188948 -37.62891,-9.8698788 0,-5.450984 16.84704,-9.869879 37.62891,-9.869879 20.78188,0 37.628917,4.418895 37.628917,9.869879 z" sodipodi:ry="9.8698788" sodipodi:rx="37.628914" sodipodi:cy="-16.038538" sodipodi:cx="-130.15903" id="path3987" style="fill:#46b24c;fill-opacity:1;stroke:none" sodipodi:type="arc"/>
        <path transform="matrix(1.2580645,0,0,0.71428573,-161.89786,704.62518)" d="m 417.00241,-64.154198 c 0,9.539222 -8.56161,17.27229 -19.12289,17.27229 -10.56128,0 -19.12289,-7.733068 -19.12289,-17.27229 0,-9.539222 8.56161,-17.272289 19.12289,-17.272289 10.56128,0 19.12289,7.733067 19.12289,17.272289 z" sodipodi:ry="17.272289" sodipodi:rx="19.12289" sodipodi:cy="-64.154198" sodipodi:cx="397.87952" id="path3991" style="fill:#46b24c;fill-opacity:1;stroke:none" sodipodi:type="arc"/>
      </g>
      <g style="fill:#3b3c3d" transform="matrix(1.0366259,0,0,0.78979662,563.21963,99.274483)" id="g3871">
        <path style="font-size:medium;font-style:normal;font-variant:normal;font-weight:normal;font-stretch:normal;text-indent:0;text-align:start;text-decoration:none;line-height:normal;letter-spacing:normal;word-spacing:normal;text-transform:none;direction:ltr;block-progression:tb;writing-mode:lr-tb;text-anchor:start;baseline-shift:baseline;color:#000000;fill:#f38e2b;fill-opacity:1;stroke:none;stroke-width:25;marker:none;visibility:visible;display:inline;overflow:visible;enable-background:accumulate;font-family:Sans;-inkscape-font-specification:Sans" d="M 257.5625 70.28125 C 251.74853 70.280839 245.89103 70.415489 240 70.71875 C 114.32472 77.188334 19.756986 151.53241 29.34375 236.34375 L 29.8125 236.3125 C 29.844009 236.42607 29.872092 236.54271 29.90625 236.65625 C 39.485429 268.49564 149.0491 292.33502 274.625 289.90625 C 391.32649 287.64912 480.78328 263.48851 485.15625 234.53125 L 485.5625 234.5625 C 486.25574 227.33366 486.22271 220.06674 485.40625 212.84375 C 476.26888 132.00796 375.77981 70.289604 257.5625 70.28125 z " transform="matrix(0.64185787,0,0,0.84245295,-457.511,736.14504)" id="path3873"/>
      </g>
      <path sodipodi:type="arc" style="fill:#fde098;fill-opacity:1;stroke:none" id="path4420" sodipodi:cx="131.31982" sodipodi:cy="33.187695" sodipodi:rx="10.101525" sodipodi:ry="10.101525" d="m 141.42135,33.187695 c 0,5.578918 -4.52261,10.101525 -10.10153,10.101525 -5.57891,0 -10.10152,-4.522607 -10.10152,-10.101525 0,-5.578919 4.52261,-10.101526 10.10152,-10.101526 5.57892,0 10.10153,4.522607 10.10153,10.101526 z" transform="matrix(0.50750001,0,0,0.50750001,147.39574,731.18957)"/>
      <path transform="matrix(0.50750001,0,0,0.50750001,163.50767,726.7954)" d="m 141.42135,33.187695 c 0,5.578918 -4.52261,10.101525 -10.10153,10.101525 -5.57891,0 -10.10152,-4.522607 -10.10152,-10.101525 0,-5.578919 4.52261,-10.101526 10.10152,-10.101526 5.57892,0 10.10153,4.522607 10.10153,10.101526 z" sodipodi:ry="10.101525" sodipodi:rx="10.101525" sodipodi:cy="33.187695" sodipodi:cx="131.31982" id="path4422" style="fill:#fde098;fill-opacity:1;stroke:none" sodipodi:type="arc"/>
      <path transform="matrix(0.50750001,0,0,0.50750001,184.97674,722.43739)" d="m 141.42135,33.187695 c 0,5.578918 -4.52261,10.101525 -10.10153,10.101525 -5.57891,0 -10.10152,-4.522607 -10.10152,-10.101525 0,-5.578919 4.52261,-10.101526 10.10152,-10.101526 5.57892,0 10.10153,4.522607 10.10153,10.101526 z" sodipodi:ry="10.101525" sodipodi:rx="10.101525" sodipodi:cy="33.187695" sodipodi:cx="131.31982" id="path4424" style="fill:#fde098;fill-opacity:1;stroke:none" sodipodi:type="arc"/>
      <path sodipodi:type="arc" style="fill:#fde098;fill-opacity:1;stroke:none" id="path4426" sodipodi:cx="131.31982" sodipodi:cy="33.187695" sodipodi:rx="10.101525" sodipodi:ry="10.101525" d="m 141.42135,33.187695 c 0,5.578918 -4.52261,10.101525 -10.10153,10.101525 -5.57891,0 -10.10152,-4.522607 -10.10152,-10.101525 0,-5.578919 4.52261,-10.101526 10.10152,-10.101526 5.57892,0 10.10153,4.522607 10.10153,10.101526 z" transform="matrix(0.50750001,0,0,0.50750001,202.5534,722.43739)"/>
      <path transform="matrix(0.50750001,0,0,0.50750001,222.32713,723.90211)" d="m 141.42135,33.187695 c 0,5.578918 -4.52261,10.101525 -10.10153,10.101525 -5.57891,0 -10.10152,-4.522607 -10.10152,-10.101525 0,-5.578919 4.52261,-10.101526 10.10152,-10.101526 5.57892,0 10.10153,4.522607 10.10153,10.101526 z" sodipodi:ry="10.101525" sodipodi:rx="10.101525" sodipodi:cy="33.187695" sodipodi:cx="131.31982" id="path4428" style="fill:#fde098;fill-opacity:1;stroke:none" sodipodi:type="arc"/>
      <path sodipodi:type="arc" style="fill:#fde098;fill-opacity:1;stroke:none" id="path4430" sodipodi:cx="131.31982" sodipodi:cy="33.187695" sodipodi:rx="10.101525" sodipodi:ry="10.101525" d="m 141.42135,33.187695 c 0,5.578918 -4.52261,10.101525 -10.10153,10.101525 -5.57891,0 -10.10152,-4.522607 -10.10152,-10.101525 0,-5.578919 4.52261,-10.101526 10.10152,-10.101526 5.57892,0 10.10153,4.522607 10.10153,10.101526 z" transform="matrix(0.50750001,0,0,0.50750001,241.36851,729.76099)"/>
      <path transform="matrix(0.50750001,0,0,0.50750001,259.67753,737.81696)" d="m 141.42135,33.187695 c 0,5.578918 -4.52261,10.101525 -10.10153,10.101525 -5.57891,0 -10.10152,-4.522607 -10.10152,-10.101525 0,-5.578919 4.52261,-10.101526 10.10152,-10.101526 5.57892,0 10.10153,4.522607 10.10153,10.101526 z" sodipodi:ry="10.101525" sodipodi:rx="10.101525" sodipodi:cy="33.187695" sodipodi:cx="131.31982" id="path4432" style="fill:#fde098;fill-opacity:1;stroke:none" sodipodi:type="arc"/>
      <path sodipodi:type="arc" style="fill:#fde098;fill-opacity:1;stroke:none" id="path4434" sodipodi:cx="131.31982" sodipodi:cy="33.187695" sodipodi:rx="10.101525" sodipodi:ry="10.101525" d="m 141.42135,33.187695 c 0,5.578918 -4.52261,10.101525 -10.10153,10.101525 -5.57891,0 -10.10152,-4.522607 -10.10152,-10.101525 0,-5.578919 4.52261,-10.101526 10.10152,-10.101526 5.57892,0 10.10153,4.522607 10.10153,10.101526 z" transform="matrix(0.50750001,0,0,0.50750001,130.55144,737.78081)"/>
      <path transform="matrix(0.50750001,0,0,0.50750001,172.63507,743.8884)" d="m 141.42135,33.187695 c 0,5.578918 -4.52261,10.101525 -10.10153,10.101525 -5.57891,0 -10.10152,-4.522607 -10.10152,-10.101525 0,-5.578919 4.52261,-10.101526 10.10152,-10.101526 5.57892,0 10.10153,4.522607 10.10153,10.101526 z" sodipodi:ry="10.101525" sodipodi:rx="10.101525" sodipodi:cy="33.187695" sodipodi:cx="131.31982" id="path4436" style="fill:#fde098;fill-opacity:1;stroke:none" sodipodi:type="arc"/>
      <path sodipodi:type="arc" style="fill:#fde098;fill-opacity:1;stroke:none" id="path4438" sodipodi:cx="131.31982" sodipodi:cy="33.187695" sodipodi:rx="10.101525" sodipodi:ry="10.101525" d="m 141.42135,33.187695 c 0,5.578918 -4.52261,10.101525 -10.10153,10.101525 -5.57891,0 -10.10152,-4.522607 -10.10152,-10.101525 0,-5.578919 4.52261,-10.101526 10.10152,-10.101526 5.57892,0 10.10153,4.522607 10.10153,10.101526 z" transform="matrix(0.50750001,0,0,0.50750001,188.74701,740.22659)"/>
      <path transform="matrix(0.50750001,0,0,0.50750001,207.05602,740.22659)" d="m 141.42135,33.187695 c 0,5.578918 -4.52261,10.101525 -10.10153,10.101525 -5.57891,0 -10.10152,-4.522607 -10.10152,-10.101525 0,-5.578919 4.52261,-10.101526 10.10152,-10.101526 5.57892,0 10.10153,4.522607 10.10153,10.101526 z" sodipodi:ry="10.101525" sodipodi:rx="10.101525" sodipodi:cy="33.187695" sodipodi:cx="131.31982" id="path4440" style="fill:#fde098;fill-opacity:1;stroke:none" sodipodi:type="arc"/>
      <path sodipodi:type="arc" style="fill:#fde098;fill-opacity:1;stroke:none" id="path4442" sodipodi:cx="131.31982" sodipodi:cy="33.187695" sodipodi:rx="10.101525" sodipodi:ry="10.101525" d="m 141.42135,33.187695 c 0,5.578918 -4.52261,10.101525 -10.10153,10.101525 -5.57891,0 -10.10152,-4.522607 -10.10152,-10.101525 0,-5.578919 4.52261,-10.101526 10.10152,-10.101526 5.57892,0 10.10153,4.522607 10.10153,10.101526 z" transform="matrix(0.50750001,0,0,0.50750001,156.52314,748.28256)"/>
      <path transform="matrix(0.50750001,0,0,0.50750001,120.63746,754.87381)" d="m 141.42135,33.187695 c 0,5.578918 -4.52261,10.101525 -10.10153,10.101525 -5.57891,0 -10.10152,-4.522607 -10.10152,-10.101525 0,-5.578919 4.52261,-10.101526 10.10152,-10.101526 5.57892,0 10.10153,4.522607 10.10153,10.101526 z" sodipodi:ry="10.101525" sodipodi:rx="10.101525" sodipodi:cy="33.187695" sodipodi:cx="131.31982" id="path4444" style="fill:#fde098;fill-opacity:1;stroke:none" sodipodi:type="arc"/>
      <path sodipodi:type="arc" style="fill:#fde098;fill-opacity:1;stroke:none" id="path4446" sodipodi:cx="131.31982" sodipodi:cy="33.187695" sodipodi:rx="10.101525" sodipodi:ry="10.101525" d="m 141.42135,33.187695 c 0,5.578918 -4.52261,10.101525 -10.10153,10.101525 -5.57891,0 -10.10152,-4.522607 -10.10152,-10.101525 0,-5.578919 4.52261,-10.101526 10.10152,-10.101526 5.57892,0 10.10153,4.522607 10.10153,10.101526 z" transform="matrix(0.50750001,0,0,0.50750001,222.43558,743.15604)"/>
      <path transform="matrix(0.50750001,0,0,0.50750001,242.20932,749.01492)" d="m 141.42135,33.187695 c 0,5.578918 -4.52261,10.101525 -10.10153,10.101525 -5.57891,0 -10.10152,-4.522607 -10.10152,-10.101525 0,-5.578919 4.52261,-10.101526 10.10152,-10.101526 5.57892,0 10.10153,4.522607 10.10153,10.101526 z" sodipodi:ry="10.101525" sodipodi:rx="10.101525" sodipodi:cy="33.187695" sodipodi:cx="131.31982" id="path4448" style="fill:#fde098;fill-opacity:1;stroke:none" sodipodi:type="arc"/>
      <path sodipodi:type="arc" style="fill:#fde098;fill-opacity:1;stroke:none" id="path4450" sodipodi:cx="131.31982" sodipodi:cy="33.187695" sodipodi:rx="10.101525" sodipodi:ry="10.101525" d="m 141.42135,33.187695 c 0,5.578918 -4.52261,10.101525 -10.10153,10.101525 -5.57891,0 -10.10152,-4.522607 -10.10152,-10.101525 0,-5.578919 4.52261,-10.101526 10.10152,-10.101526 5.57892,0 10.10153,4.522607 10.10153,10.101526 z" transform="matrix(0.50750001,0,0,0.50750001,139.67884,754.87381)"/>
      <path transform="matrix(0.50750001,0,0,0.50750001,185.08519,756.33853)" d="m 141.42135,33.187695 c 0,5.578918 -4.52261,10.101525 -10.10153,10.101525 -5.57891,0 -10.10152,-4.522607 -10.10152,-10.101525 0,-5.578919 4.52261,-10.101526 10.10152,-10.101526 5.57892,0 10.10153,4.522607 10.10153,10.101526 z" sodipodi:ry="10.101525" sodipodi:rx="10.101525" sodipodi:cy="33.187695" sodipodi:cx="131.31982" id="path4452" style="fill:#fde098;fill-opacity:1;stroke:none" sodipodi:type="arc"/>
      <path sodipodi:type="arc" style="fill:#fde098;fill-opacity:1;stroke:none" id="path4454" sodipodi:cx="131.31982" sodipodi:cy="33.187695" sodipodi:rx="10.101525" sodipodi:ry="10.101525" d="m 141.42135,33.187695 c 0,5.578918 -4.52261,10.101525 -10.10153,10.101525 -5.57891,0 -10.10152,-4.522607 -10.10152,-10.101525 0,-5.578919 4.52261,-10.101526 10.10152,-10.101526 5.57892,0 10.10153,4.522607 10.10153,10.101526 z" transform="matrix(0.50750001,0,0,0.50750001,206.32365,754.87381)"/>
      <path transform="matrix(0.50750001,0,0,0.50750001,168.2409,761.46505)" d="m 141.42135,33.187695 c 0,5.578918 -4.52261,10.101525 -10.10153,10.101525 -5.57891,0 -10.10152,-4.522607 -10.10152,-10.101525 0,-5.578919 4.52261,-10.101526 10.10152,-10.101526 5.57892,0 10.10153,4.522607 10.10153,10.101526 z" sodipodi:ry="10.101525" sodipodi:rx="10.101525" sodipodi:cy="33.187695" sodipodi:cx="131.31982" id="path4456" style="fill:#fde098;fill-opacity:1;stroke:none" sodipodi:type="arc"/>
      <path sodipodi:type="arc" style="fill:#fde098;fill-opacity:1;stroke:none" id="path4458" sodipodi:cx="131.31982" sodipodi:cy="33.187695" sodipodi:rx="10.101525" sodipodi:ry="10.101525" d="m 141.42135,33.187695 c 0,5.578918 -4.52261,10.101525 -10.10153,10.101525 -5.57891,0 -10.10152,-4.522607 -10.10152,-10.101525 0,-5.578919 4.52261,-10.101526 10.10152,-10.101526 5.57892,0 10.10153,4.522607 10.10153,10.101526 z" transform="matrix(0.50750001,0,0,0.50750001,133.81995,770.98574)"/>
      <path transform="matrix(0.50750001,0,0,0.50750001,153.59369,770.98574)" d="m 141.42135,33.187695 c 0,5.578918 -4.52261,10.101525 -10.10153,10.101525 -5.57891,0 -10.10152,-4.522607 -10.10152,-10.101525 0,-5.578919 4.52261,-10.101526 10.10152,-10.101526 5.57892,0 10.10153,4.522607 10.10153,10.101526 z" sodipodi:ry="10.101525" sodipodi:rx="10.101525" sodipodi:cy="33.187695" sodipodi:cx="131.31982" id="path4460" style="fill:#fde098;fill-opacity:1;stroke:none" sodipodi:type="arc"/>
      <path sodipodi:type="arc" style="fill:#fde098;fill-opacity:1;stroke:none" id="path4462" sodipodi:cx="131.31982" sodipodi:cy="33.187695" sodipodi:rx="10.101525" sodipodi:ry="10.101525" d="m 141.42135,33.187695 c 0,5.578918 -4.52261,10.101525 -10.10153,10.101525 -5.57891,0 -10.10152,-4.522607 -10.10152,-10.101525 0,-5.578919 4.52261,-10.101526 10.10152,-10.101526 5.57892,0 10.10153,4.522607 10.10153,10.101526 z" transform="matrix(0.50750001,0,0,0.50750001,178.49395,776.84462)"/>
      <path transform="matrix(0.50750001,0,0,0.50750001,196.0706,768.78865)" d="m 141.42135,33.187695 c 0,5.578918 -4.52261,10.101525 -10.10153,10.101525 -5.57891,0 -10.10152,-4.522607 -10.10152,-10.101525 0,-5.578919 4.52261,-10.101526 10.10152,-10.101526 5.57892,0 10.10153,4.522607 10.10153,10.101526 z" sodipodi:ry="10.101525" sodipodi:rx="10.101525" sodipodi:cy="33.187695" sodipodi:cx="131.31982" id="path4464" style="fill:#fde098;fill-opacity:1;stroke:none" sodipodi:type="arc"/>
      <path sodipodi:type="arc" style="fill:#fde098;fill-opacity:1;stroke:none" id="path4466" sodipodi:cx="131.31982" sodipodi:cy="33.187695" sodipodi:rx="10.101525" sodipodi:ry="10.101525" d="m 141.42135,33.187695 c 0,5.578918 -4.52261,10.101525 -10.10153,10.101525 -5.57891,0 -10.10152,-4.522607 -10.10152,-10.101525 0,-5.578919 4.52261,-10.101526 10.10152,-10.101526 5.57892,0 10.10153,4.522607 10.10153,10.101526 z" transform="matrix(0.50750001,0,0,0.50750001,221.70323,762.19741)"/>
      <path transform="matrix(0.50750001,0,0,0.50750001,245.13876,766.59158)" d="m 141.42135,33.187695 c 0,5.578918 -4.52261,10.101525 -10.10153,10.101525 -5.57891,0 -10.10152,-4.522607 -10.10152,-10.101525 0,-5.578919 4.52261,-10.101526 10.10152,-10.101526 5.57892,0 10.10153,4.522607 10.10153,10.101526 z" sodipodi:ry="10.101525" sodipodi:rx="10.101525" sodipodi:cy="33.187695" sodipodi:cx="131.31982" id="path4468" style="fill:#fde098;fill-opacity:1;stroke:none" sodipodi:type="arc"/>
      <path sodipodi:type="arc" style="fill:#fde098;fill-opacity:1;stroke:none" id="path4470" sodipodi:cx="131.31982" sodipodi:cy="33.187695" sodipodi:rx="10.101525" sodipodi:ry="10.101525" d="m 141.42135,33.187695 c 0,5.578918 -4.52261,10.101525 -10.10153,10.101525 -5.57891,0 -10.10152,-4.522607 -10.10152,-10.101525 0,-5.578919 4.52261,-10.101526 10.10152,-10.101526 5.57892,0 10.10153,4.522607 10.10153,10.101526 z" transform="matrix(0.50750001,0,0,0.50750001,261.2507,758.53561)"/>
      <path transform="matrix(0.50750001,0,0,0.50750001,212.18254,775.3799)" d="m 141.42135,33.187695 c 0,5.578918 -4.52261,10.101525 -10.10153,10.101525 -5.57891,0 -10.10152,-4.522607 -10.10152,-10.101525 0,-5.578919 4.52261,-10.101526 10.10152,-10.101526 5.57892,0 10.10153,4.522607 10.10153,10.101526 z" sodipodi:ry="10.101525" sodipodi:rx="10.101525" sodipodi:cy="33.187695" sodipodi:cx="131.31982" id="path4472" style="fill:#fde098;fill-opacity:1;stroke:none" sodipodi:type="arc"/>
      <path sodipodi:type="arc" style="fill:#fde098;fill-opacity:1;stroke:none" id="path4530" sodipodi:cx="131.31982" sodipodi:cy="33.187695" sodipodi:rx="10.101525" sodipodi:ry="10.101525" d="m 141.42135,33.187695 c 0,5.578918 -4.52261,10.101525 -10.10153,10.101525 -5.57891,0 -10.10152,-4.522607 -10.10152,-10.101525 0,-5.578919 4.52261,-10.101526 10.10152,-10.101526 5.57892,0 10.10153,4.522607 10.10153,10.101526 z" transform="matrix(0.50750001,0,0,0.50750001,110.9946,740.5881)"/>
      <path transform="matrix(0.50750001,0,0,0.50750001,103.4946,757.01667)" d="m 141.42135,33.187695 c 0,5.578918 -4.52261,10.101525 -10.10153,10.101525 -5.57891,0 -10.10152,-4.522607 -10.10152,-10.101525 0,-5.578919 4.52261,-10.101526 10.10152,-10.101526 5.57892,0 10.10153,4.522607 10.10153,10.101526 z" sodipodi:ry="10.101525" sodipodi:rx="10.101525" sodipodi:cy="33.187695" sodipodi:cx="131.31982" id="path4532" style="fill:#fde098;fill-opacity:1;stroke:none" sodipodi:type="arc"/>
      <path sodipodi:type="arc" style="fill:#fde098;fill-opacity:1;stroke:none" id="path4534" sodipodi:cx="131.31982" sodipodi:cy="33.187695" sodipodi:rx="10.101525" sodipodi:ry="10.101525" d="m 141.42135,33.187695 c 0,5.578918 -4.52261,10.101525 -10.10153,10.101525 -5.57891,0 -10.10152,-4.522607 -10.10152,-10.101525 0,-5.578919 4.52261,-10.101526 10.10152,-10.101526 5.57892,0 10.10153,4.522607 10.10153,10.101526 z" transform="matrix(0.50750001,0,0,0.50750001,115.9946,771.65953)"/>
      <path transform="matrix(0.50750001,0,0,0.50750001,233.13746,780.5881)" d="m 141.42135,33.187695 c 0,5.578918 -4.52261,10.101525 -10.10153,10.101525 -5.57891,0 -10.10152,-4.522607 -10.10152,-10.101525 0,-5.578919 4.52261,-10.101526 10.10152,-10.101526 5.57892,0 10.10153,4.522607 10.10153,10.101526 z" sodipodi:ry="10.101525" sodipodi:rx="10.101525" sodipodi:cy="33.187695" sodipodi:cx="131.31982" id="path4536" style="fill:#fde098;fill-opacity:1;stroke:none" sodipodi:type="arc"/>
      <path sodipodi:type="arc" style="fill:#fde098;fill-opacity:1;stroke:none" id="path4538" sodipodi:cx="131.31982" sodipodi:cy="33.187695" sodipodi:rx="10.101525" sodipodi:ry="10.101525" d="m 141.42135,33.187695 c 0,5.578918 -4.52261,10.101525 -10.10153,10.101525 -5.57891,0 -10.10152,-4.522607 -10.10152,-10.101525 0,-5.578919 4.52261,-10.101526 10.10152,-10.101526 5.57892,0 10.10153,4.522607 10.10153,10.101526 z" transform="matrix(0.50750001,0,0,0.50750001,275.9946,748.0881)"/>
      <path transform="matrix(0.50750001,0,0,0.50750001,162.06603,788.0881)" d="m 141.42135,33.187695 c 0,5.578918 -4.52261,10.101525 -10.10153,10.101525 -5.57891,0 -10.10152,-4.522607 -10.10152,-10.101525 0,-5.578919 4.52261,-10.101526 10.10152,-10.101526 5.57892,0 10.10153,4.522607 10.10153,10.101526 z" sodipodi:ry="10.101525" sodipodi:rx="10.101525" sodipodi:cy="33.187695" sodipodi:cx="131.31982" id="path4540" style="fill:#fde098;fill-opacity:1;stroke:none" sodipodi:type="arc"/>
      <path sodipodi:type="arc" style="fill:#fde098;fill-opacity:1;stroke:none" id="path4542" sodipodi:cx="131.31982" sodipodi:cy="33.187695" sodipodi:rx="10.101525" sodipodi:ry="10.101525" d="m 141.42135,33.187695 c 0,5.578918 -4.52261,10.101525 -10.10153,10.101525 -5.57891,0 -10.10152,-4.522607 -10.10152,-10.101525 0,-5.578919 4.52261,-10.101526 10.10152,-10.101526 5.57892,0 10.10153,4.522607 10.10153,10.101526 z" transform="matrix(0.50750001,0,0,0.50750001,139.56603,785.94524)"/>
      <path transform="matrix(0.50750001,0,0,0.50750001,117.78032,788.44524)" d="m 141.42135,33.187695 c 0,5.578918 -4.52261,10.101525 -10.10153,10.101525 -5.57891,0 -10.10152,-4.522607 -10.10152,-10.101525 0,-5.578919 4.52261,-10.101526 10.10152,-10.101526 5.57892,0 10.10153,4.522607 10.10153,10.101526 z" sodipodi:ry="10.101525" sodipodi:rx="10.101525" sodipodi:cy="33.187695" sodipodi:cx="131.31982" id="path4544" style="fill:#fde098;fill-opacity:1;stroke:none" sodipodi:type="arc"/>
      <path sodipodi:type="arc" style="fill:#fde098;fill-opacity:1;stroke:none" id="path4546" sodipodi:cx="131.31982" sodipodi:cy="33.187695" sodipodi:rx="10.101525" sodipodi:ry="10.101525" d="m 141.42135,33.187695 c 0,5.578918 -4.52261,10.101525 -10.10153,10.101525 -5.57891,0 -10.10152,-4.522607 -10.10152,-10.101525 0,-5.578919 4.52261,-10.101526 10.10152,-10.101526 5.57892,0 10.10153,4.522607 10.10153,10.101526 z" transform="matrix(0.50750001,0,0,0.50750001,99.923177,778.0881)"/>
      <path transform="matrix(0.50750001,0,0,0.50750001,89.566034,765.5881)" d="m 141.42135,33.187695 c 0,5.578918 -4.52261,10.101525 -10.10153,10.101525 -5.57891,0 -10.10152,-4.522607 -10.10152,-10.101525 0,-5.578919 4.52261,-10.101526 10.10152,-10.101526 5.57892,0 10.10153,4.522607 10.10153,10.101526 z" sodipodi:ry="10.101525" sodipodi:rx="10.101525" sodipodi:cy="33.187695" sodipodi:cx="131.31982" id="path4548" style="fill:#fde098;fill-opacity:1;stroke:none" sodipodi:type="arc"/>
      <path transform="matrix(0.50750001,0,0,0.50750001,198.49395,787.20176)" d="m 141.42135,33.187695 c 0,5.578918 -4.52261,10.101525 -10.10153,10.101525 -5.57891,0 -10.10152,-4.522607 -10.10152,-10.101525 0,-5.578919 4.52261,-10.101526 10.10152,-10.101526 5.57892,0 10.10153,4.522607 10.10153,10.101526 z" sodipodi:ry="10.101525" sodipodi:rx="10.101525" sodipodi:cy="33.187695" sodipodi:cx="131.31982" id="path4550" style="fill:#fde098;fill-opacity:1;stroke:none" sodipodi:type="arc"/>
      <path sodipodi:type="arc" style="fill:#fde098;fill-opacity:1;stroke:none" id="path4552" sodipodi:cx="131.31982" sodipodi:cy="33.187695" sodipodi:rx="10.101525" sodipodi:ry="10.101525" d="m 141.42135,33.187695 c 0,5.578918 -4.52261,10.101525 -10.10153,10.101525 -5.57891,0 -10.10152,-4.522607 -10.10152,-10.101525 0,-5.578919 4.52261,-10.101526 10.10152,-10.101526 5.57892,0 10.10153,4.522607 10.10153,10.101526 z" transform="matrix(0.50750001,0,0,0.50750001,253.85109,782.91605)"/>
      <path transform="matrix(0.50750001,0,0,0.50750001,270.99395,772.55891)" d="m 141.42135,33.187695 c 0,5.578918 -4.52261,10.101525 -10.10153,10.101525 -5.57891,0 -10.10152,-4.522607 -10.10152,-10.101525 0,-5.578919 4.52261,-10.101526 10.10152,-10.101526 5.57892,0 10.10153,4.522607 10.10153,10.101526 z" sodipodi:ry="10.101525" sodipodi:rx="10.101525" sodipodi:cy="33.187695" sodipodi:cx="131.31982" id="path4554" style="fill:#fde098;fill-opacity:1;stroke:none" sodipodi:type="arc"/>
      <path sodipodi:type="arc" style="fill:#fde098;fill-opacity:1;stroke:none" id="path4556" sodipodi:cx="131.31982" sodipodi:cy="33.187695" sodipodi:rx="10.101525" sodipodi:ry="10.101525" d="m 141.42135,33.187695 c 0,5.578918 -4.52261,10.101525 -10.10153,10.101525 -5.57891,0 -10.10152,-4.522607 -10.10152,-10.101525 0,-5.578919 4.52261,-10.101526 10.10152,-10.101526 5.57892,0 10.10153,4.522607 10.10153,10.101526 z" transform="matrix(0.50750001,0,0,0.50750001,287.42252,761.13034)"/>
    </g>
  </g>

	<metadata>
		<rdf:RDF xmlns:rdf="http://www.w3.org/1999/02/22-rdf-syntax-ns#" xmlns:rdfs="http://www.w3.org/2000/01/rdf-schema#" xmlns:dc="http://purl.org/dc/elements/1.1/">
			<rdf:Description about="https://iconscout.com/legal#licenses" dc:title="hamburger_burger_chicken_beef_fast_junk_food" dc:description="hamburger_burger_chicken_beef_fast_junk_food" dc:publisher="Iconscout" dc:date="2017-06-28" dc:format="image/svg+xml" dc:language="en">
				<dc:creator>
					<rdf:Bag>
						<rdf:li>Vignesh Oviyan</rdf:li>
					</rdf:Bag>
				</dc:creator>
			</rdf:Description>
		</rdf:RDF>
    </metadata></svg>
