<svg xmlns="http://www.w3.org/2000/svg" width="32" height="32" viewBox="0 0 8.467 8.467"><g transform="translate(359.5 -609.119)"><path fill="#ffcc71" d="m -352.26836,613.63397 a 3.2742185,3.2742185 0 0 1 -3.27421,3.27422 3.2742185,3.2742185 0 0 1 -3.27422,-3.27422 3.2742185,3.2742185 0 0 1 3.27422,-3.27422 3.2742185,3.2742185 0 0 1 3.27421,3.27422 z"/><g fill="#3a3640" transform="translate(-27.342 396.517)"><path style="line-height:normal;font-variant-ligatures:normal;font-variant-position:normal;font-variant-caps:normal;font-variant-numeric:normal;font-variant-alternates:normal;font-feature-settings:normal;text-indent:0;text-align:start;text-decoration-line:none;text-decoration-style:solid;text-decoration-color:#000;text-transform:none;text-orientation:mixed;shape-padding:0;isolation:auto;mix-blend-mode:normal" d="M-328.08814 215.3789c-1.02086-.0145-1.94836.59164-2.34757 1.53149a.13229997.13232554 0 1 0 .24218.10353c.35747-.8416 1.18734-1.38237 2.10148-1.36935.91414.013 1.72903.57653 2.06242 1.42796.33339.85143.11923 1.81912-.54295 2.4496-.66216.63047-1.63873.79689-2.47256.42194a.13286716.13289284 0 1 0-.10937.24222c.93118.41873 2.02409.23135 2.76357-.47273.73948-.70408.97971-1.78592.6074-2.73676-.37231-.95083-1.28375-1.58337-2.3046-1.5979zM-328.45337 213.26333c-.11525 0-.21442.0524-.28319.12502-.0688.0726-.11522.16727-.11522.27154-.00001.25727.14249.57877.27733.86536.13483.2866.26952.52352.26952.52352l.24804-.043.24608.043c0 0 .13468-.23692.26952-.52352.13484-.28659.27734-.60809.27734-.86536 0-.10427-.0445-.19892-.11328-.27154-.0688-.0726-.16793-.12502-.2832-.12502zm0 .26373h.79294c.0308 0 .0648.0164.0918.0449.027.0285.041.0674.041.0879.00001.13965-.12221.47828-.25194.75401-.12974.27575-.25976.50204-.25976.50204-.0101.0173-.0161.0367-.0176.0566-.002-.0199-.007-.0393-.0176-.0566 0 0-.13003-.22629-.25975-.50204-.12974-.27573-.25195-.61436-.25195-.75401 0-.0205.014-.0594.041-.0879.027-.0285.0609-.0449.0918-.0449z" color="#000" font-family="sans-serif" font-weight="400" overflow="visible" white-space="normal"/><path style="line-height:normal;font-variant-ligatures:normal;font-variant-position:normal;font-variant-caps:normal;font-variant-numeric:normal;font-variant-alternates:normal;font-feature-settings:normal;text-indent:0;text-align:start;text-decoration-line:none;text-decoration-style:solid;text-decoration-color:#000;text-transform:none;text-orientation:mixed;shape-padding:0;isolation:auto;mix-blend-mode:normal" d="M-329.51192 213.52706c-.11526-.00001-.21443.0543-.28319.12696-.0688.0726-.11327.16531-.11327.26958-.00001.15803.0873.28969.1953.41803.10805.12834.24665.25269.3828.36334.2723.22129.541.38873.541.38873l.14061-.2227c0 0-.25876-.16241-.5156-.37114-.12843-.10437-.25532-.22084-.3457-.32817-.0904-.10735-.13475-.20767-.13475-.24809 0-.0205.014-.0594.041-.0879.027-.0285.0609-.0449.0918-.0449h.79294v-.26371zM-327.39481 213.79077h.79293c.0308 0 .0648.0164.0918.0449.027.0285.041.0674.041.0879.00001.0404-.0444.14074-.13476.24809-.0904.10733-.21727.2238-.34568.32817-.25685.20873-.51561.37114-.51561.37114l.13866.2227c0 0 .27065-.16744.54295-.38873.13616-.11065.27475-.235.3828-.36334.10805-.12834.19531-.25999.19531-.41803 0-.10427-.0445-.19695-.11328-.26958-.0688-.0726-.16793-.12697-.2832-.12696h-.79294z" color="#000" font-family="sans-serif" font-weight="400" overflow="visible" white-space="normal"/><path style="line-height:normal;font-variant-ligatures:normal;font-variant-position:normal;font-variant-caps:normal;font-variant-numeric:normal;font-variant-alternates:normal;font-feature-settings:normal;text-indent:0;text-align:start;text-decoration-line:none;text-decoration-style:solid;text-decoration-color:#000;text-transform:none;text-orientation:mixed;shape-padding:0;isolation:auto;mix-blend-mode:normal" d="M-328.85178 214.84952c-.21757 0-.39648.18089-.39648.3985 0 .21761.17891.39655.39648.39655h1.45697c.21758 0 .39647-.17894.39647-.39655 0-.21761-.17889-.3985-.39647-.3985zm0 .26567h1.45697c.0756 0 .13086.0572.13086.13283 0 .0756-.0553.13088-.13086.13088h-1.45697c-.0756 0-.13086-.0553-.13086-.13088 0-.0756.0553-.13283.13086-.13283zM-324.74062 214.67958c-.72394-.26063-1.53353.0374-1.91593.70519a.13250994.13253556 0 1 0 .23046.13088c.31948-.55789.99083-.80572 1.59564-.58799.60481.21773.9647.83737.85544 1.47093-.10927.63356-.656 1.09535-1.29879 1.09782a.13229997.13232554 0 1 0 0 .26373c.76942-.003 1.42775-.55825 1.55855-1.31662.13078-.75836-.30141-1.50333-1.02537-1.76394z" color="#000" font-family="sans-serif" font-weight="400" overflow="visible" white-space="normal"/><path style="line-height:normal;font-variant-ligatures:normal;font-variant-position:normal;font-variant-caps:normal;font-variant-numeric:normal;font-variant-alternates:normal;font-feature-settings:normal;text-indent:0;text-align:start;text-decoration-line:none;text-decoration-style:solid;text-decoration-color:#000;text-transform:none;text-orientation:mixed;shape-padding:0;isolation:auto;mix-blend-mode:normal" d="m -324.90271,215.18355 c -0.47744,-0.18159 -1.01934,0.006 -1.28316,0.44343 a 0.13230452,0.13233009 0 1 0 0.22655,0.13674 c 0.19865,-0.3294 0.60337,-0.46882 0.96286,-0.33208 0.35949,0.13674 0.56843,0.50867 0.49803,0.88686 -0.0704,0.37819 -0.40052,0.65037 -0.78513,0.64854 a 0.13280506,0.13283073 0 1 0 0,0.26566 c 0.5108,0.002 0.95138,-0.36309 1.04489,-0.86536 0.0935,-0.50227 -0.1866,-1.00218 -0.66404,-1.18379 z" color="#000" font-family="sans-serif" font-weight="400" overflow="visible" white-space="normal"/><path style="line-height:normal;font-variant-ligatures:normal;font-variant-position:normal;font-variant-caps:normal;font-variant-numeric:normal;font-variant-alternates:normal;font-feature-settings:normal;text-indent:0;text-align:start;text-decoration-line:none;text-decoration-style:solid;text-decoration-color:#000;text-transform:none;text-orientation:mixed;shape-padding:0;isolation:auto;mix-blend-mode:normal" d="M-325.47691 215.77545c-.10764 0-.19921.0916-.19921.19925v.39654c0 .10767.0916.19925.19921.19925h.39647c.10764 0 .19726-.0916.19726-.19925v-.39654c0-.10767-.0896-.19925-.19726-.19925zm.0664.26567h.26366v.26371h-.26366zM-330.57086 217.23272c-.87516 0-1.58783.71087-1.58783 1.58619 0 .87533.71267 1.58814 1.58783 1.58814.87515 0 1.58783-.71281 1.58783-1.58814 0-.87532-.71268-1.58619-1.58783-1.58619zm0 .26371c.73216 0 1.32221.59018 1.32221 1.32248 0 .73231-.59005 1.32443-1.32221 1.32443-.73217 0-1.32222-.59212-1.32222-1.32443 0-.7323.59005-1.32247 1.32222-1.32248z" color="#000" font-family="sans-serif" font-weight="400" overflow="visible" white-space="normal"/><path d="m -330.57086,217.76016 c -0.58292,0 -1.05856,0.47573 -1.05856,1.05875 0,0.58302 0.47564,1.05876 1.05856,1.05876 0.58291,0 1.05855,-0.47574 1.05855,-1.05876 0,-0.58302 -0.47564,-1.05875 -1.05855,-1.05875 z m 0,0.26566 c 0.43993,0 0.79489,0.35308 0.79489,0.79309 0,0.44001 -0.35496,0.79505 -0.79489,0.79505 -0.43992,0 -0.79294,-0.35504 -0.79294,-0.79505 0,-0.44001 0.35302,-0.79309 0.79294,-0.79309 z" color="#000" font-family="sans-serif" font-weight="400" overflow="visible" white-space="normal" style="line-height:normal;font-variant-ligatures:normal;font-variant-position:normal;font-variant-caps:normal;font-variant-numeric:normal;font-variant-alternates:normal;font-feature-settings:normal;text-indent:0;text-align:start;text-decoration-line:none;text-decoration-style:solid;text-decoration-color:#000;text-transform:none;text-orientation:mixed;shape-padding:0;isolation:auto;mix-blend-mode:normal"/><path d="M-330.76812 218.42237c-.10764 0-.19921.0916-.19921.19924v.39655c0 .10767.0916.19925.19921.19925h.39647c.10764 0 .19726-.0916.19726-.19925v-.39655c0-.10766-.0896-.19924-.19726-.19924zm.0645.26566h.26562v.26371h-.26562zM-331.10181 213.92196a.13229997.13232554 0 0 0-.13022.13438v.12871a.13229997.13232554 0 1 0 .26457 0v-.12871a.13229997.13232554 0 0 0-.13435-.13438zM-331.10181 214.58352a.13229997.13232554 0 0 0-.13022.13438v.12871a.13229997.13232554 0 1 0 .26457 0v-.12871a.13229997.13232554 0 0 0-.13435-.13438zM-330.57042 214.44933a.13229997.13232554 0 0 0-.13434-.13025h-.12869a.13229997.13232554 0 1 0 0 .26462h.12869a.13229997.13232554 0 0 0 .13434-.13437zM-331.23184 214.44933a.13229997.13232554 0 0 0-.13436-.13025h-.12868a.13229997.13232554 0 1 0 0 .26462h.12868a.13229997.13232554 0 0 0 .13436-.13437z" color="#000" font-family="sans-serif" font-weight="400" overflow="visible" white-space="normal" style="line-height:normal;font-variant-ligatures:normal;font-variant-position:normal;font-variant-caps:normal;font-variant-numeric:normal;font-variant-alternates:normal;font-feature-settings:normal;text-indent:0;text-align:start;text-decoration-line:none;text-decoration-style:solid;text-decoration-color:#000;text-transform:none;text-orientation:mixed;shape-padding:0;isolation:auto;mix-blend-mode:normal"/><path d="M-330.96673 215.51197a.13265272.1325401 0 0 1-.13266.13255.13265272.1325401 0 0 1-.13264-.13255.13265272.1325401 0 0 1 .13264-.13254.13265272.1325401 0 0 1 .13266.13254zM-330.5706 216.30541a.13265272.1325401 0 0 1-.13265.13254.13265272.1325401 0 0 1-.13266-.13254.13265272.1325401 0 0 1 .13266-.13254.13265272.1325401 0 0 1 .13265.13254z"/><path d="M-324.61564 220.01232a.13229997.13232554 0 0 0 .13023-.13437v-.12872a.13229997.13232554 0 1 0-.26458 0v.12872a.13229997.13232554 0 0 0 .13435.13437zM-324.61564 219.35075a.13229997.13232554 0 0 0 .13023-.13437v-.12871a.13229997.13232554 0 1 0-.26458 0v.12871a.13229997.13232554 0 0 0 .13435.13437zM-325.14703 219.48495a.13229997.13232554 0 0 0 .13434.13025h.1287a.13229997.13232554 0 1 0 0-.26463h-.1287a.13229997.13232554 0 0 0-.13434.13438zM-324.48559 219.48495a.13229997.13232554 0 0 0 .13434.13025h.12869a.13229997.13232554 0 1 0 0-.26463h-.12869a.13229997.13232554 0 0 0-.13434.13438z" color="#000" font-family="sans-serif" font-weight="400" overflow="visible" white-space="normal" style="line-height:normal;font-variant-ligatures:normal;font-variant-position:normal;font-variant-caps:normal;font-variant-numeric:normal;font-variant-alternates:normal;font-feature-settings:normal;text-indent:0;text-align:start;text-decoration-line:none;text-decoration-style:solid;text-decoration-color:#000;text-transform:none;text-orientation:mixed;shape-padding:0;isolation:auto;mix-blend-mode:normal"/><path d="m -325.27915,218.55489 a 0.13228674,0.13231231 0 0 1 0.1323,-0.13231 0.13228674,0.13231231 0 0 1 0.13228,0.13231 0.13228674,0.13231231 0 0 1 -0.13228,0.13231 0.13228674,0.13231231 0 0 1 -0.1323,-0.13231 z"/><path d="m -327.71012,216.51816 v 0.7931 h 0.26562 v -0.7931 z" color="#000" font-family="sans-serif" font-weight="400" overflow="visible" white-space="normal" style="line-height:normal;font-variant-ligatures:normal;font-variant-position:normal;font-variant-caps:normal;font-variant-numeric:normal;font-variant-alternates:normal;font-feature-settings:normal;text-indent:0;text-align:start;text-decoration-line:none;text-decoration-style:solid;text-decoration-color:#000;text-transform:none;text-orientation:mixed;shape-padding:0;isolation:auto;mix-blend-mode:normal"/><path d="M-327.84293 216.78187v.26567h.66209v.26372h.26561v-.52939zM-328.89953 216.71546v.26566h.52732v.26372h.26562v-.52938z" color="#000" font-family="sans-serif" font-weight="400" overflow="visible" white-space="normal" style="line-height:normal;font-variant-ligatures:normal;font-variant-position:normal;font-variant-caps:normal;font-variant-numeric:normal;font-variant-alternates:normal;font-feature-settings:normal;text-indent:0;text-align:start;text-decoration-line:none;text-decoration-style:solid;text-decoration-color:#000;text-transform:none;text-orientation:mixed;shape-padding:0;isolation:auto;mix-blend-mode:normal"/><path d="M-328.76868 216.51816v1.12323h-.26366v.26566h.52927v-1.38889zM-327.71012 217.84064v1.32246h.52928v-.26371h-.26366v-1.05875z" color="#000" font-family="sans-serif" font-weight="400" overflow="visible" white-space="normal" style="line-height:normal;font-variant-ligatures:normal;font-variant-position:normal;font-variant-caps:normal;font-variant-numeric:normal;font-variant-alternates:normal;font-feature-settings:normal;text-indent:0;text-align:start;text-decoration-line:none;text-decoration-style:solid;text-decoration-color:#000;text-transform:none;text-orientation:mixed;shape-padding:0;isolation:auto;mix-blend-mode:normal"/><path d="M-327.84293 218.50285v.26371h.66209v-.26371zM-327.84293 218.10435v.26566h.66209v-.26566zM-328.76868 218.23718v.61143l.33788.16799.11914-.23636-.19141-.0957v-.18167h.39648v-.26567z" color="#000" font-family="sans-serif" font-weight="400" overflow="visible" white-space="normal" style="line-height:normal;font-variant-ligatures:normal;font-variant-position:normal;font-variant-caps:normal;font-variant-numeric:normal;font-variant-alternates:normal;font-feature-settings:normal;text-indent:0;text-align:start;text-decoration-line:none;text-decoration-style:solid;text-decoration-color:#000;text-transform:none;text-orientation:mixed;shape-padding:0;isolation:auto;mix-blend-mode:normal"/></g></g></svg>